<?xml version="1.0" encoding="UTF-8"?>
<svg id="Layer_2" data-name="Layer 2" xmlns="http://www.w3.org/2000/svg" viewBox="0 0 355.87 37.39">
  <defs>
    <style>
      .cls-1 {
        fill: #24130f;
        stroke-width: 0px;
      }
    </style>
  </defs>
  <g id="Layer_10" data-name="Layer 10">
    <g>
      <path class="cls-1" d="M41.41,3.25V.78s.04-.04.06-.05c.02,0,.05,0,.07,0,5.84,0,11.69,0,17.53,0,.12.09.07.21.07.33,0,.74,0,1.47,0,2.18-.05.04-.06.06-.08.06-.05,0-.1,0-.14,0-.48,0-.96.02-1.43-.01-.21-.01-.34.11-.51.15-.15.03-.34-.07-.45.12-.18.02-.35.04-.51.16-.04.03-.13.03-.17.09-.14.2-.41.21-.55.4-.04.06-.15.11-.14.15.03.17-.12.24-.17.37-.06.16-.12.33-.24.47-.1.12.04.34-.16.43,0,.12,0,.23-.02.35-.03.18-.2.3-.15.52.04.18,0,.38,0,.57,0,.16.02.32-.13.45-.05.04-.05.23,0,.27.18.15.13.34.14.52,0,.52.02,1.05,0,1.57-.01.32.12.65-.13.95-.05.06,0,.19,0,.28,0,.55-.02,1.1,0,1.65.02.36-.14.75.13,1.09.06.08,0,.23,0,.35v2.05c.12.11.25.06.36.06,1.07,0,2.15,0,3.22,0,.17,0,.33,0,.5,0,.17,0,.31,0,.45.14.05.05.18,0,.28,0,2.89,0,5.77,0,8.66,0,.16,0,.33.06.46-.1.04-.05.17-.04.27-.04.52,0,1.05,0,1.63,0,.09-.11.21-.24.32-.38-.08-.08-.16-.16-.26-.26v-1.62c0-1.77,0-3.53,0-5.3,0-.22.09-.47-.12-.67-.04-.03-.01-.14-.01-.21,0-.36.01-.72,0-1.07,0-.18.08-.37-.08-.54-.13-.13-.03-.32-.06-.48-.2-.13-.13-.33-.14-.51,0-.02-.39-.74-.41-.76-.07-.07-.13-.13-.2-.2q-.4-.4-1.12-.75c-.14-.07-.26-.18-.44-.15-.21.05-.35-.2-.59-.15-.23.05-.48,0-.71,0h-.89s-.06-.07-.06-.09c0-.76,0-1.52,0-2.28.03-.03.04-.05.06-.06.02-.01.04-.01.07-.01,5.82,0,11.64,0,17.46,0,.04,0,.08.02.14.04v2.34c-.1.1-.23.05-.34.05-.5,0-1,0-1.5,0-.16,0-.33-.06-.46.09-.11.13-.34-.05-.44.15-.2.04-.38.08-.55.24-.12.12-.31.17-.44.31-.06.06-.18.05-.24.11-.06.06-.04.16-.1.24-.13.18-.19.4-.31.58-.1.15.04.39-.19.49-.03.18.08.38-.11.53,0,.19,0,.38-.03.56-.04.27-.18.51-.15.8.03.26,0,.52,0,.79v3.36c0,6.25,0,12.5,0,18.75,0,.22-.08.46.12.67.06.06.01.23.02.34,0,.09,0,.23.04.26.19.12.04.31.14.45.13.18.17.42.31.58.22.24.33.55.6.76.29.24.56.42,1.07.54.12.03.15.17.3.15.12-.02.25.02.36,0,.24-.07.37.17.59.15.21-.02.43,0,.64,0,.17,0,.33,0,.5,0,.04,0,.09.02.13.03.01.02.04.04.04.05,0,.76,0,1.52,0,2.28-.02.02-.04.04-.06.06-.02.01-.04.02-.06.02-5.86,0-11.73,0-17.57,0-.03-.05-.06-.07-.06-.09,0-.76,0-1.52,0-2.29.19-.11.38-.04.56-.05.17-.01.33,0,.5,0,.2-.01.43.08.58-.14.19,0,.38,0,.57,0,.1-.25.38-.08.55-.24.17-.16.45-.18.63-.36.11-.11.19-.25.39-.27.11-.01.07-.25.2-.33.1-.06.19-.15.15-.29.14-.09.16-.22.14-.37-.01-.13.17-.16.15-.3-.01-.09-.03-.19.06-.26.03-.03.07-.07.07-.11.02-.14-.03-.32.04-.41.11-.13.1-.25.1-.39,0-.14,0-.29,0-.43v-.43c.26-.28.14-.63.14-.94.01-3.12,0-6.25,0-9.37,0-.11.03-.23-.03-.35h-9.61c-.13-.13-.26-.26-.39-.39-.07-.07-.13-.07-.24,0-.04.02-.08.1-.1.09-.23-.05-.19.14-.26.29-.08,0-.17,0-.26,0-1.03,0-2.05,0-3.08,0-.18,0-.37.07-.53-.1-.06-.06-.14.12-.28.11-.31-.02-.62,0-.93,0-.15,0-.37.22-.31.31.24.35.12.73.13,1.09.02.45.01.91,0,1.36,0,.2.08.42-.12.6-.05.04-.02.18-.02.27,0,1.6,0,3.2,0,4.79,0,.24.22.4.16.66-.05.23-.01.47-.01.71v1.43c0,.24.02.48,0,.71-.02.17.16.23.15.37,0,.12-.05.29.01.35.11.11.13.24.19.36.08.16.19.3.23.48.05.18.31.22.29.46,0,.06.11.17.19.2.11.04.23.05.29.16.08.14.26.11.34.21.09.11.21.07.31.14.22.16.47.26.76.24.16-.01.32-.04.46.12.04.05.18.02.27.02.4,0,.8,0,1.18,0,.03.05.06.07.06.09,0,.76,0,1.52,0,2.27-.11.12-.24.07-.35.07-2.1,0-4.2,0-6.3,0-.16,0-.34.03-.44-.14-.14.02-.2-.03-.22-.19-.01-.09-.13-.16-.21-.25-.13.18-.05.35-.07.5-.04.03-.07.07-.11.07-.41,0-.81,0-1.22,0-.13,0-.21-.05-.31-.12-.12-.09-.21.03-.29.12h-8.22v-2.38c.11-.1.23-.05.35-.05.33,0,.67,0,1,0,.28-.29.65-.04.94-.15.27-.1.57-.14.8-.31.16-.13.34-.23.5-.35.15-.11.24-.26.31-.44.06-.14.27-.2.24-.4.18-.07.11-.29.24-.41.11-.1-.03-.33.16-.43,0-.12.02-.24.01-.35-.02-.15.19-.2.15-.37-.03-.11,0-.24,0-.36,0-.16.19-.25.15-.44-.04-.16,0-.33,0-.5V8.24c0-.21-.03-.43,0-.64.04-.25-.23-.4-.16-.66.05-.2.02-.43,0-.64,0-.14-.18-.2-.15-.37.03-.11.01-.24,0-.36,0-.04-.05-.07-.06-.12-.08-.21-.24-.38-.23-.63,0-.09-.17-.16-.13-.3-.2-.2-.39-.42-.6-.6-.1-.08-.23-.14-.35-.18-.31-.11-.58-.39-.95-.3-.21-.22-.48-.13-.73-.14-.48-.01-.95,0-1.43,0-.02,0-.04-.03-.07-.05ZM48.55,16.14c0-.05,0-.08,0-.1-.02-.09.06-.21-.05-.25-.1-.04-.22-.03-.32,0-.08.02-.14.12-.2.18.15.18.3.31.58.18ZM48.55,29.21c-.15,0-.22,0-.29,0-.04,0-.11.02-.11.05-.02.06-.03.14,0,.19.05.08.12.13.2.19.06.05.2-.03.2-.12,0-.09,0-.18,0-.31ZM76.8,16.13c-.17-.09-.2-.24-.34-.23-.14.01-.3-.06-.42.07.18.28.42.24.76.16ZM53.18,17.13c-.17-.09-.2-.24-.34-.23-.14.01-.3-.06-.42.07.18.28.42.24.76.16ZM75.75,18.27c-.06-.06-.12-.12-.17-.17-.02-.02-.03-.04-.05-.04-.05,0-.11-.02-.13,0-.04.05-.06.11-.07.18,0,.03.05.1.07.1.11,0,.23.05.36-.06ZM72.45,8.92c.02-.11-.04-.17-.14-.18-.09,0-.13.04-.14.11-.02.11.04.17.14.18.09,0,.12-.04.14-.11ZM51.56,35.73s-.04-.05-.05-.05c-.06,0-.13-.02-.19,0-.08.03-.05.12-.05.18,0,.02.08.06.09.05.07-.06.13-.12.2-.19ZM48.24,4.5c-.04-.07-.18-.07-.24,0,0,.01,0,.04,0,.05.04.07.18.08.24,0,0-.01,0-.03,0-.05ZM73.04,15.6s-.1.05-.16.08c.06.02.12.06.18.07.03,0,.07-.04.11-.07-.04-.02-.07-.05-.13-.08ZM54.82,34.41c-.04-.07-.18-.07-.24,0,0,.01,0,.04,0,.05.04.07.18.08.24,0,0-.01,0-.03,0-.05ZM72.28,21.15s0-.04,0-.05c-.05-.07-.2-.07-.24,0,0,.01,0,.04,0,.05.05.07.19.07.24,0ZM49.27,18.91s.08-.03.12-.05c0,0,0-.04,0-.05-.05-.07-.21-.07-.23,0-.02.08.05.1.12.09ZM53.24,33.22s.05,0,.07,0c.04-.02.07-.05.11-.07-.04-.02-.07-.07-.11-.07-.06,0-.12.04-.18.07.04.02.07.05.11.07ZM73.14,34.6s0-.04,0-.05c-.05-.07-.2-.07-.24,0,0,.01,0,.04,0,.05.05.07.19.07.24,0ZM68.42,18.14s0-.04,0-.05c-.05-.07-.2-.07-.24,0,0,.01,0,.04,0,.05.05.07.19.07.24,0ZM47.81,6.93c-.04-.07-.18-.07-.24,0,0,.01,0,.04,0,.05.04.07.18.08.24,0,0-.01,0-.03,0-.05ZM75.29,3.93s-.04-.04-.05-.05c-.02.03-.04.06-.04.1,0,.01.03.03.04.05.02-.03.03-.06.05-.09ZM56.4,35.42s-.04-.04-.05-.05c-.02.03-.04.06-.04.1,0,.01.03.03.04.05.02-.03.03-.06.05-.09Z"/>
      <path class="cls-1" d="M88.77,34.22c.43,0,.81.01,1.19,0,.2,0,.43.09.59-.13.19,0,.38,0,.57-.01.12,0,.24-.01.36,0,.14.02.17-.16.3-.15.09,0,.21.06.26-.05.07-.13.2-.09.3-.14.42-.25.97-.75,1.14-1.17.07-.16.17-.31.22-.48.01-.04.08-.07.08-.11.03-.18-.08-.38.12-.53.01-.16.02-.33.03-.49.02-.18-.08-.39.12-.52,0-.14.02-.28.02-.42,0-3.36,0-6.73,0-10.09,0-.14.02-.28.03-.42.22-.16.11-.4.1-.6,0-.17-.18-.3-.14-.51.03-.16,0-.33,0-.5v-1.07c0-2.41,0-4.82,0-7.23,0-.22-.1-.48.14-.66-.03-.18.07-.38-.1-.53-.04-.04-.04-.13-.04-.19,0-.14.01-.29,0-.43-.03-.29.11-.61-.14-.87v-.57c0-.17,0-.33,0-.5,0-.02,0-.05-.02-.06-.03-.04-.09-.06-.1-.1-.03-.11,0-.26-.06-.33-.09-.09-.07-.22-.15-.3-.07-.07-.14-.15-.1-.24.07-.2-.23-.25-.15-.44-.15-.11-.22-.33-.43-.35-.12-.01-.18-.09-.22-.16-.09-.16-.32-.08-.4-.25-.24.04-.42-.22-.64-.16-.22.06-.32-.17-.52-.16-.21.02-.43,0-.64,0h-.57c-.19,0-.38,0-.57,0-.14,0-.28.04-.42-.05V.78c.11-.1.24-.05.35-.05,1.69,0,3.39,0,5.08,0,.14,0,.29,0,.43,0,.16-.01.32.05.46-.1.1-.11.27-.05.41-.04.36.04.76-.15,1.09.14h1.22c.31-.24.67-.13,1.01-.13.2,0,.3-.2.51-.16.21.04.43,0,.64,0h3.01c.19,0,.38-.01.57,0,.25.02.52-.1.74.13.05.05.18.01.28.01.57,0,1.15-.02,1.72,0,.29.01.62-.14.87.14h.72c.21,0,.43,0,.64,0,.18,0,.38-.04.51.14.17,0,.33,0,.5,0,.27.02.57-.09.8.14h.79c.23.23.53.13.8.14.15,0,.2.19.37.15.14-.03.29,0,.43,0,.17.29.57,0,.74.29.16.03.34-.08.47.06.12.13.26.06.4.08.02,0,.05,0,.07,0,.02,0,.06,0,.06.02.1.19.32.06.43.16.1.08.21.08.3.15.19.13.39.22.59.3.18.08.36.17.53.27.12.07.28.07.35.19.13.21.41.21.55.4.18.24.51.31.7.55.19.24.43.44.65.66.1.1.2.21.3.3.12.11.21.23.26.39.04.13.23.16.25.33.02.18.27.23.27.38,0,.16.17.21.17.37,0,.07.11.14.17.21.04.05.09.11.1.17.02.11-.02.23.1.32.1.07.05.2.14.3.12.12,0,.37.19.49,0,.21-.05.43.14.58,0,.19,0,.38,0,.57.01.18-.07.38.12.53.04.03.02.13.02.2,0,.38-.03.77.01,1.14.02.23-.2.36-.16.59.03.21,0,.43,0,.64-.2.13-.12.33-.15.51-.02.15-.14.27-.16.44-.02.15-.1.34-.25.46.04.22-.08.41-.18.57-.09.15-.11.35-.27.47-.04.03,0,.12-.06.19-.13.16-.31.26-.39.48-.06.16-.24.28-.37.42-.15.15-.3.3-.45.46-.12.12-.23.24-.36.35-.17.15-.29.39-.53.45-.21.05-.27.31-.51.32-.12,0-.17.24-.32.25-.14.01-.19.13-.28.2-.22.15-.48.23-.7.38-.22.14-.52.18-.71.35-.16.15-.4-.02-.5.19-.18.03-.3.18-.49.2-.22.02-.41.2-.66.13-.13.1-.27.18-.44.15-.03,0-.08.05-.09.08-.01.07-.02.15.06.19.04.02.11,0,.14.01.16.14.29.34.47.41.22.08.33.26.48.39.16.14.31.3.46.45.15.15.33.29.45.46.1.15.17.31.31.45.13.13.31.21.35.42.04.2.29.26.35.43.1.25.34.39.45.6.11.22.26.37.42.54.09.1.06.26.2.35.1.06.14.16.17.29.03.12.23.2.26.32.03.13.11.2.18.28.1.12.24.2.27.39.03.16.26.23.3.45.02.14.25.19.27.39.01.09.14.18.22.26.09.08.02.23.15.3.16.08.16.27.26.39.09.11.2.2.3.31.09.1.06.27.2.34.14.07.12.24.2.35.08.11.24.16.23.33.23.2.3.51.53.71.12.11.27.22.32.37.07.2.23.29.34.43.09.13.21.21.27.39.06.18.31.3.39.48.08.19.22.31.36.42.3.24.41.62.7.86.27.23.51.5.76.75.13.13.26.24.44.32.16.07.26.31.42.36.15.05.25.22.43.18.29.2.63.33.94.51.04.02.09.05.12.05.2-.04.31.08.42.21.09.11.19.12.29,0,.14-.15.31-.04.47-.07.16.24.44.08.66.19v2.34c-.1.1-.22.05-.33.05-1.69,0-3.39,0-5.08,0-.18,0-.38.05-.52-.14-.01-.02-.11-.02-.13,0-.09.09-.17.14-.3.14-1.43,0-2.86,0-4.28,0-.35-.35-.7-.68-1.02-1.03-.17-.19-.38-.32-.5-.58-.1-.22-.37-.37-.51-.58-.09-.13-.13-.29-.26-.39-.13-.1-.18-.26-.26-.39-.1-.15-.22-.28-.3-.45-.07-.14-.22-.22-.26-.4-.03-.14-.24-.19-.27-.39-.01-.11-.24-.2-.26-.31-.02-.17-.13-.24-.23-.34-.1-.1-.06-.27-.2-.35-.19-.11-.18-.36-.35-.5-.13-.11-.18-.3-.24-.47-.08-.19-.33-.27-.32-.51-.15-.11-.11-.35-.3-.45-.15-.07-.09-.31-.26-.39-.17-.08-.08-.32-.25-.4,0-.12-.05-.23-.15-.29-.14-.08-.11-.26-.21-.34-.11-.09-.04-.24-.15-.3-.2-.11-.24-.34-.34-.51-.08-.14-.14-.33-.23-.47-.1-.15-.2-.3-.3-.45-.11-.15-.2-.3-.3-.45-.07-.12-.05-.28-.2-.35-.14-.07-.11-.25-.21-.34-.14-.13-.22-.29-.31-.45-.07-.12-.05-.28-.2-.35-.14-.07-.11-.27-.21-.34-.2-.14-.21-.41-.4-.56-.18-.14-.2-.41-.41-.55-.02-.01.02-.12,0-.13-.34-.26-.48-.68-.8-.96-.3-.27-.58-.57-.86-.86-.13-.14-.31-.19-.47-.25-.12-.05-.25-.04-.37-.14-.09-.07-.27.04-.38-.11-.03-.04-.13-.04-.19-.04-.91,0-1.81,0-2.7,0-.11.08-.07.18-.07.27,0,3.03,0,6.06,0,9.09-.1.25.18.41.15.66-.03.21,0,.43,0,.64.2.13.1.34.15.51.05.17.13.32.16.51.03.16.2.3.25.46.04.13.12.2.19.28.2.21.4.41.61.61.1.1.19.23.32.27.12.05.25.02.39.12.11.08.35,0,.46.08.13.1.26.09.39.1.18.03.37-.07.54.08.16.14.36.04.55.06.19.02.38,0,.57,0,.18.01.38-.05.57.04v2.33c-.06.09-.14.06-.21.06-4.91,0-9.83,0-14.74,0-.17,0-.31-.01-.45-.14-.05-.04-.21-.03-.27.01-.1.07-.18.13-.31.13-.86,0-1.71,0-2.55,0-.04-.04-.06-.05-.07-.07,0-.02,0-.05,0-.07,0-.74,0-1.48,0-2.29ZM112.09,13.4c0-.08-.18-.07-.08-.21.09-.12.17-.26.22-.41.05-.15-.07-.33.08-.47.22-.19-.08-.27-.08-.41,0-.07-.03-.18,0-.21.19-.14.14-.34.14-.52,0-.48.02-.95,0-1.43-.01-.27.13-.57-.14-.8,0-.14-.02-.29,0-.43.03-.17-.19-.22-.15-.37.08-.27-.2-.46-.15-.73-.16-.13-.09-.35-.18-.49-.15-.25-.27-.51-.38-.77-.11-.26-.44-.35-.47-.66,0-.06-.09-.1-.15-.15-.12-.12-.23-.24-.36-.35-.12-.1-.19-.28-.39-.25-.12-.12-.22-.26-.36-.35-.22-.14-.47-.25-.71-.36-.24.07-.4-.25-.65-.15-.13-.2-.35-.09-.51-.15-.17-.06-.32-.17-.52-.14-.09.01-.23.03-.27-.02-.15-.18-.35-.11-.53-.12-.33-.01-.67,0-1,0-.33-.28-.72-.12-1.08-.14-.5-.03-1,.01-1.5-.01-.29-.02-.53.08-.81.2,0,4.7,0,9.41,0,14.13,0,.02,0,.05,0,.07,0,.02.03.03.06.07h2.12s.11.02.14,0c.31-.27.68-.11,1.02-.13.4-.03.81-.01,1.21,0,.12,0,.16-.09.23-.15.12,0,.24,0,.35,0,.16-.01.32.05.46-.09.13-.12.32-.02.47-.06.13-.24.47-.04.6-.28.18.04.3-.07.44-.14.15-.08.34-.13.47-.24.12-.12.29-.15.4-.25.33-.31.66-.62.95-.96.11-.13.2-.3.3-.45.09-.13.12-.29.26-.39.16-.11.02-.3.14-.45.14-.16.24-.38.23-.62,0-.05.09-.1.13-.15ZM116.18,30.21h-.22c-.12,0-.24-.02-.35,0-.08.02-.11.14-.23.14-.15,0-.14.07-.05.15.02.02.04.03.05.05.02.06.02.17.06.18.08.04.18.04.27.03.11,0,.16-.18.3-.14.2.05.28-.1.37-.23-.05-.05-.1-.1-.2-.2ZM100.43,11.75s.07-.07.07-.11c0-.18,0-.37-.02-.55,0-.02-.15-.07-.17-.05-.1.08-.26.15-.22.32.04.16-.1.23-.12.35.15.08.32.02.48.04ZM100.65,31.9c0-.07,0-.1,0-.12-.02-.09.06-.21-.05-.25-.1-.04-.22-.03-.32,0-.08.02-.14.12-.21.18q.23.22.58.19ZM100.36,12.32c.13,0,.22,0,.31,0,.08,0,.16-.14.12-.2-.06-.07-.12-.15-.19-.2-.05-.03-.13-.02-.19,0-.03,0-.04.07-.05.11,0,.07,0,.14,0,.29ZM117.9,28.35c.14.05.21-.06.28-.14.02-.03.03-.06.05-.1-.06-.02-.14-.06-.18-.04-.08.04-.14.12-.19.19,0,.01.03.06.05.09ZM96.5,22.41s.03.04.05.05c.06,0,.13.02.19,0,.08-.03.05-.12.05-.18,0-.02-.08-.06-.08-.06-.07.06-.13.13-.2.19ZM97.07,24.06s.08-.03.12-.05c0,0,0-.04,0-.05-.05-.07-.21-.07-.23,0-.02.08.05.1.12.09ZM119.38,8.94c-.04-.07-.18-.07-.24,0,0,.01,0,.04,0,.05.04.07.18.08.24,0,0-.01,0-.03,0-.05ZM96.19,29.31s0-.04,0-.05c-.05-.07-.2-.07-.24,0,0,.01,0,.04,0,.05.05.07.19.07.24,0ZM117.66,7.69s-.03-.06-.05-.09c-.02.02-.05.04-.04.05,0,.03.03.06.04.1.02-.02.03-.03.05-.05ZM116.66,30.74s-.03-.06-.05-.09c-.02.02-.05.04-.04.05,0,.03.03.06.04.1.02-.02.03-.03.05-.05ZM99.67,28.16s.04.04.05.05c.02-.03.04-.06.04-.1,0-.01-.03-.03-.04-.05-.02.03-.03.06-.05.09ZM111.22,24.29s-.03-.06-.05-.09c-.02.02-.05.04-.04.05,0,.03.03.06.04.1.02-.02.03-.03.05-.05ZM111.51,18.71s-.03-.06-.05-.09c-.02.02-.05.04-.04.05,0,.03.03.06.04.1.02-.02.03-.03.05-.05ZM108.36,18.71s-.03-.06-.05-.09c-.02.02-.05.04-.04.05,0,.03.03.06.04.1.02-.02.03-.03.05-.05Z"/>
      <path class="cls-1" d="M155.11,36.94c-.19,0-.39.01-.58,0-.19-.02-.3.19-.52.16-.15-.03-.33-.07-.46.1-.03.04-.13.04-.2.04-.29,0-.57-.02-.86,0-.22.02-.41.18-.66.14-.23-.03-.48,0-.71,0h-2.86c-.24,0-.48-.01-.72,0-.22.02-.35-.21-.59-.16-.18.04-.38,0-.57,0-.26-.25-.58-.15-.87-.13-.2.01-.25-.21-.44-.17-.12.03-.29.07-.39-.09-.01-.02-.03-.04-.05-.04-.16-.03-.34.07-.47-.06-.14-.15-.31-.08-.47-.08-.24,0-.41-.21-.65-.17-.1-.22-.36-.03-.49-.2-.12-.15-.39.04-.49-.21-.2.06-.36-.06-.51-.15-.16-.09-.32-.17-.51-.16-.08-.17-.32-.08-.4-.25-.19-.01-.33-.13-.48-.21-.33-.18-.69-.31-1-.52-.15-.1-.34-.13-.47-.24-.12-.11-.31-.14-.39-.25-.15-.19-.41-.21-.56-.39-.15-.17-.41-.21-.55-.4-.03-.04-.12,0-.19-.05-.22-.2-.41-.43-.69-.58-.26-.14-.45-.42-.67-.64-.08-.08-.17-.13-.28-.18-.16-.07-.31-.21-.38-.39-.02-.04-.01-.1-.04-.13-.13-.14-.26-.28-.41-.4-.15-.12-.14-.33-.3-.45-.19-.15-.4-.31-.5-.51-.11-.22-.27-.37-.42-.54-.1-.12-.11-.29-.25-.4-.14-.11-.14-.33-.3-.45-.11-.09-.21-.26-.22-.4-.02-.22-.24-.27-.31-.45-.18-.45-.41-.88-.65-1.3-.08-.14.03-.3-.1-.39-.12-.08-.06-.23-.15-.3-.15-.11-.07-.26-.1-.39-.23-.1-.06-.36-.2-.49-.16-.13,0-.36-.19-.5-.13-.11.06-.36-.11-.52-.14-.13.03-.39-.2-.49-.03-.16.07-.35-.06-.48-.14-.15-.11-.32-.08-.46.04-.23-.2-.36-.16-.59.04-.18,0-.38,0-.57-.29-.43-.08-.92-.14-1.37-.02-.18.08-.38-.12-.52-.03-.02-.02-.09-.02-.13,0-.41-.01-.81,0-1.22,0-.18.2-.3.15-.52-.04-.16,0-.33,0-.5,0-.19,0-.38,0-.57,0-.14-.07-.31.04-.41.14-.12.09-.26.1-.39,0-.14,0-.29,0-.43.24-.18.11-.43.14-.66.02-.14.15-.21.16-.37,0-.22.19-.41.13-.66.19-.16.14-.38.14-.58.19-.12.08-.36.19-.49.09-.11.08-.21.1-.32.02-.1.14-.21.13-.3-.04-.19.11-.3.17-.44.08-.17.15-.33.15-.51.17-.08.08-.32.25-.4,0-.19.12-.34.21-.48.08-.13.08-.31.23-.41-.04-.25.33-.28.29-.53.15-.14.15-.38.34-.5.09-.06.06-.18.11-.24.07-.1.11-.19.15-.3.04-.1.15-.19.25-.25.17-.11.14-.33.3-.46.14-.11.31-.22.31-.44,0-.02.03-.03.05-.05.2-.28.58-.41.66-.8.25-.25.51-.51.76-.76.25-.25.51-.5.76-.76.14-.15.38-.16.51-.35.1-.16.26-.28.4-.41.11-.11.31-.1.4-.25.09-.15.32-.08.39-.25.08-.17.31-.1.4-.25.27.03.32-.33.58-.32.15-.14.35-.19.53-.28.13-.07.28-.13.42-.21.14-.07.27-.2.41-.21.18,0,.3-.09.44-.16.16-.08.31-.17.48-.23.2-.08.38-.27.63-.2.18.05.25-.17.44-.16.19.02.36-.17.57-.16.1-.23.38-.01.49-.2.01-.02.03-.05.05-.05.14,0,.29.02.42-.02.1-.03.16-.15.3-.14.2.01.4.02.59-.12.13-.09.37.07.52-.13.01-.02.04-.03.06-.03.14,0,.29-.02.43,0,.16.03.21-.18.37-.15.14.02.29.02.43,0,.2-.02.43.08.59-.12.02-.03.09-.01.13-.02.21-.01.42-.03.63-.04.17-.21.4-.08.6-.1.21-.02.43,0,.64,0s.43,0,.64,0c.18,0,.38.06.52-.14.01-.02.12-.02.13,0,.11.17.29.14.45.14.24,0,.48-.02.71,0,.34.04.71-.14,1.01.14.19,0,.38,0,.57,0,.18.01.38-.08.53.11.03.04.13.02.2.03.22.03.45-.06.67.12.14.12.43-.07.57.16.16.03.35-.07.47.06.13.13.26.07.4.09.16.02.35-.07.47.06.15.15.31.05.47.09.04,0,.08.05.12.06.21.06.37.23.62.24.16,0,.3.24.46.25.19.02.34.1.51.16.14.05.26.16.44.16.14,0,.27.13.41.2.14.07.27.18.41.2.13.02.16.17.3.16.14-.01.18.13.27.2.06.04.11.07.18.09.25.1.46.27.69.42.21.13.47.18.62.4.24,0,.32.26.51.32.22.06.3.31.49.38.33.12.53.39.74.62.28.32.69.48.96.8.22.25.46.48.7.71.01.34.44.4.47.74,0,.07.14.13.19.2.11.15.28.23.35.43.06.16.26.27.35.43.09.16.16.32.31.44.13.46.53.77.66,1.23.2.13,0,.43.24.54.05.22.17.41.28.6.1.17.14.37.27.53.08.09-.02.26.1.39.1.1.18.27.19.41.01.15.1.25.14.37.05.12-.02.28.13.38.03.02.02.08.03.13,0,.16-.03.32.12.46.09.08-.04.28.11.38.03.02.05.08.06.12.04.22-.1.48.14.66,0,.19,0,.38,0,.57.2.13.12.33.14.51.04.31-.12.66.13.95.05.05,0,.18,0,.28,0,1.12,0,2.24,0,3.36,0,.16.06.33-.11.46-.04.03-.02.13-.03.2-.03.34.08.69-.13,1.02-.07.1,0,.28-.01.42-.02.16.08.33-.08.47-.14.11.03.34-.15.44-.03.02-.04.08-.05.12-.02.16.05.32-.1.46-.12.11.04.33-.15.44-.04.02-.03.13-.04.19,0,.09.02.24-.02.27-.21.12-.03.38-.2.5-.15.11.02.32-.15.44-.1.08-.06.27-.2.34.09.23-.15.38-.15.58-.18.16-.19.4-.31.59-.11.17-.16.38-.27.53-.17.24-.35.47-.44.75-.24.16-.26.49-.51.65-.02.01-.04.03-.05.05-.04.2-.13.38-.26.54-.14.16-.29.31-.45.46-.16.14-.16.38-.35.51-.17.12-.31.3-.46.45-.15.15-.3.3-.46.46-.25.25-.53.49-.75.76-.23.28-.61.35-.8.65-.1.15-.3.1-.41.24-.09.12-.19.26-.37.31-.14.04-.25.23-.39.26-.19.04-.25.21-.38.3-.19-.08-.25.23-.44.15-.13.09-.19.25-.38.29-.16.04-.3.24-.46.25-.18.01-.25.24-.44.17-.08.16-.28.14-.4.24-.13.1-.37.01-.49.19-.18.01-.3.23-.51.15-.02,0-.08.04-.11.08-.08.1-.23.03-.3.15-.09.14-.29-.03-.38.1-.09.12-.21.1-.32.09-.13,0-.16.17-.3.15-.09-.01-.18-.03-.26.06-.04.04-.12.08-.18.08-.19-.02-.35.04-.52.14-.19.12-.41.2-.65.15-.14-.03-.22.05-.3.14ZM139.58,19.69v1.14c0,.21,0,.43,0,.64.01.23-.08.49.05.69.15.21.05.41.09.61.05.31-.12.66.14.94,0,.21.03.43,0,.64-.04.23.21.35.16.59-.04.22-.05.45.12.66.07.09.03.27.04.41.2.09.04.33.16.43.16.14.07.31.11.46.03.1.11.2.13.3.02.11,0,.24,0,.36,0,.02.04.03.05.05.1.22.28.41.25.68.2.1.07.3.15.44.21.34.38.7.54,1.06.06.14.25.21.26.32,0,.27.36.32.32.59.17.17.33.34.5.51.45.46.92.9,1.36,1.37.18.19.44.24.61.44.07.09.23.13.35.18.29.12.56.26.82.43.19-.07.25.23.44.15.09.14.23.13.37.15.15.02.26.17.44.14.07-.01.14.11.23.13.2.04.42-.06.61.08.19.13.41.06.62.06.13,0,.21.09.31.13.12.05.28.02.42.02.19,0,.38,0,.57,0h.57c.19,0,.39-.02.57,0,.21.03.34-.1.52-.14.22-.05.5.08.68-.07.22-.18.54.07.7-.23.14,0,.28-.01.42-.02.1-.19.32-.06.43-.16.14-.12.31-.18.47-.24.12-.05.2-.22.37-.16.08-.09.16-.17.29-.15.07-.14.24-.11.35-.2.1-.09.17-.19.33-.24.14-.04.25-.2.36-.32.11-.12.29-.1.4-.25.16-.21.37-.37.55-.56.17-.19.4-.32.5-.58.1-.25.37-.36.5-.58.1-.16.16-.32.31-.44.02-.01.04-.04.04-.05-.04-.14.14-.2.14-.3,0-.18.21-.25.18-.43.14-.07.11-.24.2-.35.1-.12.2-.28.19-.41-.02-.19.13-.29.16-.44.03-.15.2-.26.14-.44.13-.14.1-.36.18-.49.08-.13.05-.28.11-.38.08-.15.17-.28.13-.45-.05-.17.15-.23.15-.37,0-.18-.06-.38.14-.51.03-.18-.08-.38.11-.53.01-.19.02-.37.03-.56,0-.12-.04-.28.02-.34.19-.19.09-.4.12-.6.01-.09-.02-.23.03-.27.17-.13.11-.3.11-.46,0-.26.04-.53,0-.78-.05-.28.17-.46.16-.73-.02-1.64-.01-3.29-.01-4.93,0-.07.03-.17,0-.21-.25-.29-.1-.63-.13-.95-.02-.21,0-.43,0-.64-.28-.25-.09-.58-.14-.87-.02-.12,0-.24,0-.36,0-.04-.02-.1-.05-.12-.19-.12.02-.39-.2-.49-.01-.16-.04-.33-.03-.49.01-.18-.2-.25-.16-.44.03-.14.08-.33-.07-.47-.14-.14-.04-.32-.07-.47-.22-.11-.07-.36-.19-.49-.1-.1-.1-.21-.09-.32.01-.14-.19-.16-.14-.3.07-.21-.17-.31-.15-.51.01-.18-.17-.31-.21-.48-.05-.19-.25-.33-.21-.56,0-.04-.01-.1-.04-.12-.21-.16-.28-.41-.38-.63-.02-.04-.04-.08-.07-.11-.11-.15-.3-.22-.36-.42-.06-.22-.25-.34-.4-.47-.15-.13-.15-.33-.3-.45-.23-.19-.41-.42-.69-.57-.27-.14-.44-.46-.76-.6-.19-.08-.23-.37-.5-.35-.14-.16-.36-.18-.52-.29-.15-.1-.31-.17-.47-.25-.15-.08-.3-.18-.48-.22-.1-.21-.35-.01-.5-.19-.1-.13-.37,0-.49-.19-.16-.03-.33.07-.47-.07-.16-.15-.36-.03-.54-.08-.19-.05-.36-.17-.59-.15-.21.03-.43,0-.64,0h-.64c-.12,0-.24,0-.36,0-.21,0-.42.02-.63.03-.19.22-.45.06-.67.11-.02,0-.04.02-.05.04-.1.16-.26.12-.39.09-.17-.03-.22.18-.37.15-.22-.04-.39.1-.59.13-.23.03-.4.22-.64.18-.08.17-.32.08-.4.25-.19-.07-.25.23-.44.15-.08.17-.31.1-.4.25-.09.16-.29.14-.39.26-.11.13-.26.17-.39.26-.16.1-.27.26-.41.4-.15.15-.3.3-.46.46-.13.13-.27.27-.4.4-.15.15-.29.32-.46.45-.16.12-.13.35-.3.45-.18.1-.13.35-.3.45.05.26-.3.28-.29.53,0,.11-.18.16-.14.3.05.16-.15.24-.14.37,0,.14-.13.18-.16.3-.06.19-.14.37-.27.53.09.21-.16.34-.13.51.03.21-.24.31-.15.51.1.22-.18.32-.14.51.03.14-.1.2-.13.3-.05.13-.04.29,0,.42.04.17-.15.22-.15.37,0,.23.07.47-.14.66,0,.17-.03.34,0,.5.05.19-.16.27-.15.44,0,.24-.01.48,0,.71.02.26-.07.49-.14.73-.04.13,0,.28,0,.43-.03.36.1.74-.13,1.09-.06.08-.06.28,0,.34.19.21.13.44.13.66,0,.64,0,1.29,0,1.93ZM139.12,24.1c-.1-.08-.22-.03-.33-.04-.14,0-.28,0-.42,0-.11,0-.23-.05-.34.04-.02.18-.06.36.04.53h.46c.07-.09.16-.2.24-.29.08,0,.13,0,.17,0,.2,0,.2,0,.18-.25ZM163.51,16.86c.13.06.26.08.38,0,.11-.08.21-.18.17-.34-.02-.06-.03-.15-.08-.17-.09-.04-.16.02-.24.09-.13.12-.16.29-.23.44ZM141.19,5.17c-.06.2-.06.37,0,.59.14-.14.27-.26.38-.39.04-.06-.04-.19-.12-.2-.09,0-.18,0-.27,0ZM133.43,24.28s-.04-.05-.05-.05c-.06,0-.13-.02-.19,0-.08.03-.05.12-.05.18,0,.02.08.06.09.05.07-.06.13-.12.2-.19ZM136.29,14.9s.08-.03.12-.05c0,0,0-.04,0-.05-.05-.07-.21-.07-.23,0-.02.08.05.1.12.09ZM161.46,13.85s0-.04,0-.05c-.05-.07-.2-.07-.24,0,0,.01,0,.04,0,.05.05.07.19.07.24,0ZM163.86,29.66s-.06.03-.09.05c.02.02.04.05.05.04.03,0,.06-.03.1-.04-.02-.02-.03-.03-.05-.05ZM163.58,17.31s.03-.04.05-.05c-.03-.02-.06-.04-.1-.04-.01,0-.03.03-.05.04.03.02.06.03.09.05ZM161.57,25.76s.03-.04.05-.05c-.03-.02-.06-.04-.1-.04-.01,0-.03.03-.05.04.03.02.06.03.09.05ZM134.88,14.7s.04.04.05.05c.02-.03.04-.06.04-.1,0-.01-.03-.03-.04-.05-.02.03-.03.06-.05.09Z"/>
      <path class="cls-1" d="M215.43.87v2.38c-.14.09-.29.04-.43.05-.23.02-.47-.06-.66.14-.21,0-.42-.05-.58.14-.25-.05-.43.13-.61.24-.15.09-.33-.04-.45.14-.04.06-.19.05-.23.11-.13.21-.42.2-.56.4-.03.04-.07.07-.1.1-.17.17-.34.34-.5.51-.01.01,0,.05-.01.07-.14.25-.22.53-.39.77-.02.03-.04.09-.03.13.06.22-.22.35-.15.59.06.21-.2.35-.15.59.04.2.04.43,0,.64-.04.2-.16.37-.14.59.02.19,0,.38,0,.57,0,.21-.01.43,0,.64,0,.14-.05.22-.14.3.17.11.14.28.14.44,0,8.97,0,17.94,0,26.9-.09.12-.22.07-.33.07-.72,0-1.43,0-2.15,0-.17,0-.31-.08-.34-.19-.06-.2-.17-.34-.32-.44-.25-.17-.29-.47-.5-.66-.22-.19-.47-.37-.59-.61-.14-.26-.34-.44-.52-.64-.14-.15-.17-.37-.35-.51-.16-.12-.31-.26-.37-.49-.03-.12-.2-.2-.29-.31-.15-.17-.34-.3-.42-.54-.07-.21-.39-.27-.4-.55-.2-.2-.4-.4-.6-.61-.14-.15-.34-.26-.4-.48-.06-.2-.24-.28-.36-.42-.14-.16-.36-.28-.44-.46-.16-.36-.47-.58-.73-.84-.17-.17-.21-.41-.39-.56-.17-.14-.37-.29-.41-.54,0-.04-.06-.07-.1-.1-.24-.24-.47-.47-.71-.71-.06-.36-.4-.5-.61-.75-.14-.16-.15-.38-.34-.51-.16-.1-.32-.24-.4-.4-.16-.33-.43-.55-.67-.79-.15-.15-.16-.38-.35-.51-.17-.12-.37-.27-.45-.45-.14-.32-.4-.51-.63-.74-.15-.15-.15-.38-.34-.51-.18-.12-.36-.27-.45-.45-.15-.31-.41-.5-.62-.75-.13-.16-.23-.34-.36-.49-.14-.16-.35-.28-.44-.46-.15-.31-.39-.52-.62-.74-.18-.16-.19-.42-.4-.56-.17-.12-.37-.27-.44-.46-.11-.29-.33-.46-.53-.64-.18-.16-.22-.4-.4-.56-.18-.16-.4-.31-.49-.51-.14-.32-.4-.52-.63-.74-.16-.15-.15-.38-.34-.51-.17-.12-.36-.27-.45-.45-.16-.33-.43-.55-.67-.79-.15-.15-.16-.38-.35-.51-.16-.1-.32-.24-.4-.4-.17-.35-.52-.54-.7-.85-.2-.33-.46-.58-.73-.84-.11-.1-.06-.26-.19-.36-.13-.1-.24-.23-.36-.35-.1-.1-.22-.19-.3-.31-.11-.17-.2-.36-.36-.5-.15-.14-.28-.29-.37-.49-.09-.18-.29-.31-.44-.46-.15-.15-.3-.3-.46-.46-.02-.02-.05-.04-.05-.05.03-.3-.19-.19-.33-.21-.02,0-.04.02-.07.04-.03.12.14.15.12.28-.03.19,0,.38,0,.57v19.68c0,.24.04.48,0,.71-.05.24.17.37.16.59-.01.14-.04.31.03.41.11.15.12.35.29.46.09.06.09.15.11.24.01.08.14.11.14.23,0,.13.13.24.21.26.13.02.2.09.29.16.23.19.39.45.69.58.26.12.51.26.77.4.16.09.35.23.58.15.23.11.48.13.73.16.22.03.42.16.66.13.24-.02.48,0,.71,0,.02,0,.04.03.07.05v2.32s-.04.04-.06.05c-.02,0-.05,0-.07,0-4.41,0-8.82,0-13.24,0-.12-.08-.07-.21-.07-.32,0-.69,0-1.38,0-2.04.04-.04.06-.07.08-.07.24,0,.48,0,.71,0,.18-.24.45-.07.65-.15.17-.06.32-.14.52-.14.18,0,.34-.13.47-.23.14-.1.32.02.45-.13.1-.11.3-.11.39-.26.08-.13.27-.06.35-.2.12-.21.43-.18.55-.41.02-.04.09-.07.1-.1.01-.21.19-.31.31-.45-.05-.16.12-.23.16-.36.06-.19.2-.35.26-.53.07-.19,0-.42.02-.64,0-.16-.05-.32.11-.46.05-.04.03-.18.03-.27,0-.29,0-.57,0-.86,0-6.61,0-13.21,0-19.82,0-.22.09-.47-.12-.67-.04-.03-.02-.13-.02-.2,0-.12,0-.24,0-.36v-.86c-.29-.17,0-.57-.28-.74-.02-.01,0-.09,0-.14,0-.1,0-.19,0-.29-.25-.1-.07-.39-.24-.55-.15-.15-.12-.43-.32-.58-.12-.09-.13-.24-.2-.35-.07-.1-.16-.18-.25-.25-.1-.09-.16-.25-.34-.21-.08-.09-.16-.17-.3-.15-.17-.2-.45-.19-.64-.35-.03-.03-.07-.06-.11-.07-.18-.03-.39.07-.52-.14-.17,0-.33,0-.5,0-.41,0-.81,0-1.22,0-.02,0-.04-.03-.07-.05V.78s.04-.04.06-.05c.02,0,.05,0,.07,0,3.84,0,7.68,0,11.53,0,.05.1.08.2.15.29.2.26.48.44.65.73.15.26.41.45.61.68.12.14.14.33.3.45.15.11.29.25.4.4.12.16.19.36.36.5.16.14.3.31.46.45.16.14.16.37.35.51.14.11.31.22.37.41.06.22.32.3.38.48.1.29.34.44.52.64.24.26.56.47.74.77.19.31.44.53.67.79.15.17.21.4.4.55.19.15.4.3.5.51.16.33.43.55.67.79.15.15.16.37.34.51.16.12.35.24.37.49,0,.05.09.1.14.15.22.22.5.4.64.67.15.28.43.44.56.7.18.37.5.61.78.89.15.15.14.38.34.51.18.11.36.27.45.45.18.38.5.62.78.89.15.15.15.38.34.51.17.12.34.28.45.45.1.15.16.34.31.44.17.11.16.33.3.45.13.11.24.23.36.35.13.13.26.28.41.4.16.14.16.38.35.51.17.12.37.27.45.45.13.3.38.46.57.7.11.14.28.23.35.43.06.16.23.29.36.42.13.14.29.26.4.41.11.14.14.34.31.44.18.1.18.31.3.45.13.14.27.27.4.41.13.13.28.26.4.41.13.16.19.36.36.5.15.12.32.24.4.41.14.32.4.51.62.74.1.1.14.23.2.35.04.07.13.12.21.18.04.03.17-.03.18-.08,0-.1,0-.19,0-.29,0-1.14,0-2.29,0-3.43,0-.25-.09-.52.14-.73v-.42c-.22-.13-.14-.34-.14-.52,0-3.79,0-7.58,0-11.38,0-.17.05-.36-.01-.49-.08-.17-.15-.33-.13-.52.02-.17-.16-.25-.16-.44,0-.16-.13-.32-.22-.47-.08-.13-.12-.29-.2-.42-.17-.28-.42-.5-.68-.7-.2,0-.25-.24-.39-.27-.16-.03-.23-.14-.34-.21-.13-.09-.26-.21-.4-.22-.17-.02-.3-.13-.44-.14-.27-.03-.51-.27-.8-.16-.2.07-.25-.19-.44-.15-.19.03-.38.01-.57,0-.16,0-.33.05-.5-.05V.93s.04-.05.06-.06c.05,0,.1,0,.14,0h12.79ZM185.69,8.74c-.06-.2.04-.37-.08-.58-.13.13-.26.24-.37.38-.04.06.04.19.12.2.09,0,.18,0,.33,0ZM203.64,29.21s.05,0,.07,0c.09.01.13-.04.14-.11.02-.11-.03-.17-.15-.17-.07,0-.14-.01-.21,0-.03,0-.06.07-.07.11-.02.07,0,.14.08.17.04.02.09,0,.14,0ZM191.69,16.62c.09.02.12-.04.14-.11.02-.11-.04-.17-.14-.18-.09,0-.13.04-.14.11-.02.11.03.18.15.18ZM204.13,24.35c0-.11-.06-.17-.18-.15-.07.01-.12.05-.11.14,0,.11.07.16.18.14.07-.01.13-.05.11-.14ZM196.81,14.42s0-.04,0-.05c-.05-.07-.2-.07-.24,0,0,.01,0,.04,0,.05.05.07.19.07.24,0ZM203.53,24.77s-.07.05-.11.07c.04.02.07.07.11.07.06,0,.12-.04.18-.07-.06-.02-.12-.05-.18-.07ZM198.41,18.62c-.09,0-.15.05-.12.09.04.07.18.07.24,0,0-.01,0-.04,0-.05-.04-.02-.08-.03-.12-.05ZM202.13,26.49s.08-.03.12-.05c0,0,0-.04,0-.05-.05-.07-.21-.07-.23,0-.02.08.05.1.12.09ZM202.1,27.92s-.07.05-.11.07c.04.02.07.07.11.07.06,0,.12-.04.18-.07-.06-.02-.12-.05-.18-.07ZM188.84,13.52s.03.06.05.09c.02-.02.05-.04.04-.05,0-.03-.03-.06-.04-.1-.02.02-.03.03-.05.05ZM209.34,2.85s.06-.03.09-.05c-.02-.02-.04-.05-.05-.04-.03,0-.06.03-.1.04.02.02.03.03.05.05Z"/>
      <path class="cls-1" d="M328.81,18.55v-1.99c0-1.67,0-3.34,0-5.01,0-.16-.03-.32.13-.45.05-.04.05-.23,0-.27-.18-.15-.13-.34-.14-.52,0-.98,0-1.96,0-2.93-.05-.08-.15-.11-.15-.23,0-.14-.01-.29,0-.43.03-.22-.09-.39-.14-.59-.04-.18,0-.38-.02-.57,0-.08-.1-.15-.14-.23-.1-.2-.23-.39-.28-.6-.05-.22-.34-.26-.31-.52,0-.04-.09-.1-.14-.15-.07-.07-.14-.19-.21-.19-.23,0-.28-.26-.46-.29-.1-.02-.16-.08-.24-.13-.05-.03-.14,0-.2-.03-.19-.08-.37-.17-.59-.14-.19.02-.38,0-.57,0-.12,0-.15-.09-.23-.15-.38,0-.76,0-1.14,0-.1-.42-.11-1.15-.04-2.39.94-.08,23.51-.11,28.83-.03.11.17.04.36.05.55,0,.15.19.2.16.37-.03.16,0,.33,0,.5v.43c0,.17-.02.34,0,.5.04.29-.14.62.14.88.02.02,0,.09,0,.14v.93c0,.19.03.39,0,.57-.04.19.15.28.15.44,0,.38-.02.77,0,1.14.03.36-.15.75.13,1.09.02.03,0,.09,0,.14v1.54s-.05.06-.07.07c-.02,0-.05,0-.07,0h-2.22c-.12-.08-.06-.26-.19-.36-.09-.07.03-.27-.11-.38-.13-.1-.02-.27-.06-.4-.03-.1-.11-.2-.13-.3-.02-.11.01-.24-.11-.31-.04-.27-.17-.5-.29-.74-.11-.23-.29-.45-.32-.73-.14-.07-.14-.23-.2-.35-.18-.34-.35-.69-.66-.94-.17-.13-.17-.37-.35-.51-.16-.13-.38-.15-.51-.34-.12-.17-.28-.34-.45-.45-.2-.13-.44-.2-.64-.35-.27.07-.46-.23-.73-.14-.16.05-.21-.17-.37-.15-.11.02-.26.02-.34-.04-.1-.08-.2-.1-.32-.1-2.79,0-5.58,0-8.37,0-.02,0-.04.03-.07.05v12.92c.1.1.23.05.34.05.79,0,1.57,0,2.36,0,.18,0,.37-.05.52.14.04.05.23.04.27,0,.13-.16.29-.13.45-.13.1,0,.19,0,.29,0,.25-.03.52.09.76-.07.24-.16.51-.03.76-.08.02,0,.05,0,.06-.02.1-.22.37-.02.49-.2.05-.07.13-.04.19-.07.08-.04.14-.12.21-.19.14-.13.26-.28.41-.4.24-.2.25-.53.45-.75.05-.05.02-.18.03-.27,0-.12.02-.23.03-.35.22-.1.02-.37.2-.49.12-.08.03-.22.06-.33-.25-.2-.11-.48-.14-.73.26-.2.07-.49.16-.74,0,0,.02-.03.04-.04.02,0,.05,0,.07,0,.74,0,1.48,0,2.22,0,.18.25.23.52.23.83,0,3.67,0,7.35,0,11.02v.39s-.07.06-.09.06c-.81,0-1.62,0-2.42,0-.12-.1-.07-.23-.07-.34,0-.33-.04-.67,0-1,.04-.26-.2-.41-.16-.66.03-.21,0-.43,0-.64-.17-.1-.09-.31-.16-.43-.18-.31-.29-.67-.59-.9-.22-.17-.35-.44-.65-.5-.13-.19-.43-.01-.54-.24-.22-.04-.48.11-.67-.11-.23,0-.47-.03-.7-.03-1.31,0-2.62,0-3.94,0h-.41c-.11.12-.06.25-.06.36,0,3.55,0,7.11,0,10.66,0,.14-.07.3.05.41.15.14.07.31.09.47.02.13.2.21.14.37-.05.16.18.21.14.37.17.13.08.37.19.49.14.16.22.35.35.5.11.13.21.28.36.35.17.08.3.21.45.3.17.1.36.16.53.27.14.09.27.05.41.05.12,0,.15.1.25.15.24,0,.51-.03.77,0,.17.02.31.17.52.14.19-.03.38,0,.57,0s.38,0,.57,0c.21,0,.35-.2.59-.15.18.04.38,0,.57,0,.14,0,.26,0,.39.11.12.1.35.1.46,0,.13-.11.25-.11.39-.11.29,0,.57.01.86,0,.23-.01.46.08.68-.08.19-.13.41-.04.62-.06.11-.24.4-.06.55-.24.06-.07.24,0,.32-.07.1-.07.18-.14.3-.14.11-.24.41-.03.55-.25.11-.18.34-.2.51-.3.02-.01.05,0,.07,0,.25-.2.41-.52.75-.61.24-.24.5-.45.7-.72.1-.14.19-.3.31-.44.13-.15.23-.34.36-.49.12-.14.14-.32.29-.46.13-.12.17-.36.27-.52.2-.32.31-.69.54-1-.05-.16.18-.22.14-.37-.04-.16.14-.25.13-.37,0-.18.11-.3.15-.44.03-.15.2-.25.16-.44-.03-.15.2-.25.14-.44-.04-.13.17-.16.14-.3-.01-.09-.04-.19.06-.26.09-.06.1-.16.08-.25-.07-.23.13-.38.19-.57.03-.11.17-.2.34-.19.62.02,1.24,0,1.84,0,.07.07.12.11.17.17.03.03.04.08.05.12.02.14-.3.23-.08.41.14.11.07.26.08.4,0,.76,0,1.53,0,2.29,0,.18.06.37-.11.53-.06.06-.03.22-.03.34,0,.91,0,1.81,0,2.72,0,.22.08.46-.12.67-.06.06-.02.23-.02.34,0,1.12,0,2.24,0,3.36,0,.11.04.24-.04.36h-23.24c-.03-.08-.04-.2-.1-.24-.09-.07-.23-.06-.33,0-.1.06-.17.16-.26.25-4.02.05-7.1.04-7.94-.04v-2.32s.04-.06.06-.07c.05,0,.09,0,.14,0h1.07c.19,0,.39-.03.57,0,.19.04.28-.15.44-.15.17,0,.33,0,.5-.01.16-.21.5-.09.65-.35.03-.06.17-.05.23-.11.14-.12.26-.28.41-.4.14-.11.18-.26.25-.4.08-.16.16-.32.24-.47.07-.14.19-.26.14-.44.15-.14.15-.33.14-.51,0-.16.2-.25.15-.44-.03-.13-.01-.28,0-.43,0-.16.19-.25.15-.44-.04-.16,0-.33,0-.5v-1.5c0-2.84,0-5.68,0-8.52,0-.2.1-.34.14-.51.03-.13.11-.12.2-.13.07-.01.08-.06.03-.14-.09-.13-.24-.12-.37-.21ZM335.14,35.08c.05,0,.1,0,.14,0,.07-.02.11-.05.11-.14s-.04-.14-.11-.14c-.14,0-.27.01-.38-.12-.04-.05-.17-.03-.26-.03-.07,0-.13.05-.11.14,0,.04.03.11.05.12.2.01.33.26.56.17ZM333.39,19.61c0-.18,0-.3,0-.41,0-.09-.04-.13-.11-.14-.04,0-.1,0-.13.02-.18.14-.28.3-.14.54h.37ZM330.81,29.36c0,.12,0,.16,0,.21,0,.09-.02.2.1.22.06,0,.13-.03.18-.06.06-.04.11-.09.15-.15.05-.07-.01-.2-.11-.21-.09,0-.18,0-.32,0ZM333.84,27.23c-.13,0-.2-.03-.27-.02-.06,0-.15.03-.17.07-.02.04,0,.14.04.18.12.16.26.22.33.15.1-.09.02-.22.07-.38ZM332.79,21.95c-.15-.09-.32-.03-.47-.04-.02,0-.07.07-.07.1,0,.06.03.17.07.17.21.04.39,0,.47-.24ZM332.65,25.01s0-.04,0-.05c-.05-.07-.2-.07-.24,0,0,.01,0,.04,0,.05.05.07.19.07.24,0ZM333.65,8.41s0-.04,0-.05c-.05-.07-.2-.07-.24,0,0,.01,0,.04,0,.05.05.07.19.07.24,0ZM332.39,4.88s.08-.03.12-.05c0,0,0-.04,0-.05-.05-.07-.21-.07-.23,0-.02.08.05.1.12.09ZM334.25,29.21s.08-.03.12-.05c0,0,0-.04,0-.05-.05-.07-.21-.07-.23,0-.02.08.05.1.12.09Z"/>
      <path class="cls-1" d="M.02,20.84c0-.95-.01-1.91,0-2.86,0-.29-.13-.61.13-.88.06-.06,0-.23.01-.35.02-.23-.1-.5.07-.68.18-.2-.06-.48.19-.65.05-.03.03-.17.03-.27.01-.21.02-.42.03-.63.2-.14.04-.39.13-.51.14-.2.12-.39.13-.59.24-.11.05-.4.24-.55.11-.08,0-.24.06-.33.07-.1.16-.17.13-.31-.04-.18.19-.24.15-.44-.03-.17.22-.3.13-.51.14-.1.12-.29.23-.41.13-.13-.05-.4.2-.49-.04-.18.2-.25.16-.43.15-.12.17-.31.27-.46.12-.19.14-.43.34-.57.13-.09.06-.26.2-.35.06-.04.05-.19.11-.23.16-.12.2-.3.3-.45.08-.11.22-.19.29-.31.07-.11.08-.26.21-.34.17-.12.16-.37.35-.5.16-.1.28-.25.41-.4.13-.16.32-.25.39-.48.05-.16.24-.28.38-.41.18-.19.37-.37.56-.56.18-.17.35-.35.59-.47.22-.11.4-.34.56-.55.11-.14.3-.09.41-.24.1-.14.22-.29.44-.32.14-.02.18-.28.39-.26.23-.26.56-.37.86-.53.29-.16.6-.28.88-.46.17.05.22-.16.37-.15.15,0,.2-.2.37-.15.07-.15.26-.1.34-.21.12-.16.33.01.44-.15.08-.11.24-.11.35-.19.11-.08.32.01.43-.16.01-.02.09,0,.14,0,.13-.02.28.05.39-.1.09-.13.28.03.39-.1.04-.06.1-.08.18-.09.18-.02.39.08.54-.06.15-.14.35,0,.46-.09.16-.12.37-.08.5-.18.15-.12.19-.04.26.04.08-.05.11-.14.23-.15.18-.01.38.08.55-.05.19-.16.41-.06.61-.08.19-.02.38,0,.57,0s.38,0,.57,0c.12,0,.22-.02.32-.11.06-.05.18-.03.27-.03.02,0,.05,0,.06.02.1.22.36.03.49.2.15.18.24.01.34-.08.24,0,.48.03.71,0,.2-.04.24.21.45.16.18-.04.38,0,.57,0,.17,0,.33,0,.5,0,.02,0,.06,0,.07,0,.1.22.36.06.49.2.03.03.07.07.11.07.19.02.37.02.56.03.11.18.3.09.45.12.17.03.31.22.51.14.09.12.22.15.37.15.1,0,.2.09.3.13.14.06.26.17.44.16.12,0,.21.16.36.16.08.17.32.08.4.25.16-.05.24.11.36.16.18.07.37.15.52.29.21.2.51.26.76.41.19.12.42.16.57.35.19.24.51.3.7.55.17.22.4.41.6.61.1.1.26.07.35.2.07.12.18.22.27.32.23-.07.39-.15.38-.38,0-.05-.02-.13,0-.14.14-.08.1-.26.2-.35.11-.1.07-.26.19-.36.1-.08-.03-.27.1-.38.13-.11.02-.28.07-.4.08-.18.12-.38.19-.57.03-.08.1-.15.09-.25-.02-.17,0-.31.13-.45.05-.05,0-.18,0-.26.08-.11.18-.07.27-.07.45,0,.91,0,1.36,0,.07,0,.5.19.54.24.13.16.23.34.26.54.02.14,0,.29,0,.43,0,1.48,0,2.96,0,4.44,0,.29-.14.61.13.88.05.05,0,.18,0,.28v4.58c0,.17.03.34,0,.5-.04.19.15.28.15.44,0,.4,0,.81,0,1.21-.02.02-.04.05-.06.06-.02.01-.04.01-.07.01-.74,0-1.48,0-2.22,0-.16-.05-.03-.29-.21-.33,0-.12,0-.24-.03-.35-.07-.22-.2-.42-.14-.66-.19-.16-.14-.38-.14-.58-.24-.11-.05-.41-.24-.54-.04-.2-.15-.39-.17-.57-.01-.18-.19-.27-.16-.44.03-.16-.13-.24-.14-.37-.02-.16-.18-.25-.16-.44.01-.13-.11-.28-.18-.42-.08-.16-.16-.31-.24-.47-.07-.14-.15-.27-.22-.41-.07-.14-.17-.27-.2-.42-.04-.18-.27-.23-.28-.38,0-.16-.13-.23-.17-.36-.04-.14-.19-.26-.31-.37-.14-.13-.11-.35-.3-.46-.13-.08-.26-.2-.26-.39-.2-.2-.39-.42-.61-.6-.19-.16-.29-.43-.59-.47-.07,0-.13-.13-.2-.19-.16-.16-.3-.36-.55-.4-.12-.22-.4-.22-.55-.4-.15-.18-.43-.16-.58-.31-.16-.18-.45.02-.55-.24-.34.05-.58-.22-.87-.32-.1-.03-.19-.14-.31-.11-.18.04-.3-.09-.44-.14-.17-.06-.31-.22-.51-.15-.2.07-.34-.09-.51-.13-.16-.04-.33,0-.5-.01-.2-.25-.48-.13-.73-.14-.43-.02-.86-.03-1.29,0-.34.02-.71-.14-1.01.14-.19,0-.38.01-.57,0-.18-.02-.25.21-.44.15-.11-.03-.24-.02-.35,0-.08.02-.15.11-.23.13-.11.03-.23-.02-.33.09-.05.06-.16.06-.24.11-.32.2-.67.34-1,.52-.21.11-.44.21-.66.31-.2.09-.37.3-.51.49-.15.2-.41.2-.56.4-.14.19-.37.29-.45.53-.07.21-.27.31-.41.48.04.27-.34.32-.31.59-.41.32-.58.8-.8,1.24-.08.16-.22.29-.21.48-.18.1-.1.29-.16.44-.06.16-.18.31-.27.46.09.23-.17.36-.16.59,0,.16-.2.31-.13.51-.27.1-.06.39-.24.55-.14.13-.02.36-.05.55-.02.13-.18.21-.15.37.03.13.03.29-.12.38-.01,0-.02.04-.02.06,0,.26,0,.52,0,.79-.22.21-.15.48-.13.73.01.2-.1.34-.14.52-.04.18,0,.38,0,.57s.03.39,0,.57c-.04.17-.17.31-.14.52.03.19,0,.38,0,.57v2.22c0,.86-.01,1.72,0,2.58,0,.31-.13.66.14.94,0,.31.02.62,0,.93-.02.22.1.39.14.59.04.2.02.42.03.63.27.15.02.44.19.64.16.19.08.45.06.68-.01.19.12.29.15.44.03.15.18.25.16.44-.02.14.13.27.15.44.02.17.16.32.13.52,0,.06.04.12.07.18.18.38.35.76.57,1.12.07.12.05.27.19.35.12.07.14.23.21.34.1.15.22.28.3.45.07.14.22.21.26.4.03.12.19.21.29.31.3.3.6.61.91.91.11.11.18.27.38.28.16.01.2.26.38.28.02,0,.06,0,.07,0,.1.1.23.18.3.3.1.16.32.08.4.25.16-.03.23.16.36.16.15,0,.2.21.37.15.07.14.23.13.35.2.15.09.32.22.47.22.21,0,.3.24.51.16.14-.05.17.14.3.14.11,0,.24-.03.32.09.01.02.03.05.05.05.16.03.35-.07.47.06.15.14.31.08.47.09.31.01.62,0,.93,0,.21,0,.42-.04.59.14.03.04.16.04.21,0,.25-.2.53-.13.8-.14.25-.01.51.05.73-.14.04-.04.14-.01.21,0,.31.04.56-.24.87-.15.02,0,.06-.06.1-.08.14-.07.28-.17.42-.19.15-.02.26-.12.37-.14.16-.03.31-.05.44-.16.21.1.33-.11.51-.15.14-.03.27-.15.41-.22.14-.07.27-.15.42-.19.13-.04.17-.16.27-.21.09-.06.23-.08.29-.16.16-.21.46-.22.6-.45.25-.04.37-.26.55-.4.08-.07.2-.09.29-.16.08-.05.14-.13.2-.2.12-.12.22-.26.36-.35.15-.1.12-.29.24-.41.14-.14.23-.34.36-.49.12-.14.25-.27.3-.45.21-.1.19-.37.36-.5.17-.13.21-.35.31-.52.1-.17.2-.35.27-.53.1-.25.26-.46.33-.72.16-.09.06-.28.13-.37.1-.13.11-.29.22-.42.09-.09.07-.26.2-.35-.04-.25.12-.42.21-.63.03-.06.06-.12.07-.18.02-.16-.03-.32.12-.46.09-.08-.04-.28.11-.38.02-.01.05-.03.05-.05,0-.12-.01-.24.01-.35.02-.1.12-.2.13-.3.03-.18-.03-.37.14-.52.05-.04,0-.18,0-.27.52-.08,1.54-.09,2.42-.02,0,4.36,0,8.71,0,13.07-.02.02-.03.04-.05.05-.02,0-.05,0-.07,0-.69,0-1.38,0-2.07,0-.13-.1-.19-.25-.27-.38-.09-.14-.09-.26-.09-.39,0-.05.01-.13,0-.14-.24-.1-.05-.37-.19-.49-.14-.12-.02-.31-.11-.38-.14-.11-.08-.33-.24-.41,0-.15-.15-.23-.16-.36,0-.15-.21-.21-.15-.37,0-.01-.02-.04-.04-.05-.07-.07-.13-.14-.2-.2-.11-.09-.17-.23-.36-.27-.06-.01-.09.06-.14.11-.15.15-.29.31-.46.45-.14.11-.21.34-.44.31-.15.15-.3.3-.46.45-.16.16-.41.2-.55.4-.12.17-.39.15-.5.35-.02.04-.07.06-.11.08-.14.06-.29.11-.43.18-.14.08-.19.28-.4.25-.08.17-.28.13-.41.24-.09.08-.24.17-.35.17-.18,0-.3.1-.44.15-.07.02-.12.05-.18.09-.13.08-.28.2-.41.19-.19-.02-.28.17-.44.15-.16-.01-.25.09-.37.14-.12.05-.27,0-.38.12-.09.1-.28-.04-.38.11-.02.03-.07.06-.11.07-.2.04-.42-.07-.61.09-.16.14-.37.02-.55.06-.1.03-.2.1-.3.14-.08.03-.19-.04-.26.06-.06.09-.15.08-.25.09-.29.03-.61-.1-.88.13-.05.05-.18,0-.28,0-1.26,0-2.53,0-3.79,0-.16,0-.34.06-.46-.11-.02-.03-.08-.02-.13-.03-.21-.01-.42-.02-.63-.03-.16-.21-.4-.1-.6-.11-.15,0-.2-.19-.37-.16-.14.03-.33.06-.42,0-.15-.11-.28-.14-.45-.13-.11-.18-.28-.16-.44-.14-.19.02-.29-.23-.52-.16-.1.03-.2-.18-.37-.13-.15.04-.21-.19-.37-.14-.13.04-.22-.04-.3-.14-.16.05-.22-.14-.37-.15-.15-.01-.26-.16-.44-.15-.14,0-.27-.13-.41-.2-.14-.07-.28-.14-.41-.22-.19-.11-.43-.15-.58-.34-.03-.04-.07-.09-.1-.09-.18.03-.27-.14-.43-.19-.15-.04-.26-.23-.45-.29-.14-.05-.2-.27-.4-.24-.2-.27-.55-.34-.76-.6-.12-.16-.36-.18-.49-.36-.13-.17-.3-.31-.45-.46-.15-.15-.3-.3-.46-.46-.15-.15-.3-.3-.46-.46-.15-.15-.3-.31-.46-.45-.16-.14-.16-.37-.35-.51-.14-.1-.34-.22-.36-.41-.03-.23-.35-.27-.3-.52-.12-.14-.27-.24-.31-.44-.03-.14-.28-.19-.25-.39-.42-.43-.55-1.01-.86-1.5.02-.15-.21-.2-.14-.37-.09-.08-.17-.16-.15-.3-.24-.11-.04-.42-.25-.54-.01-.2-.25-.34-.17-.57-.23-.13-.04-.47-.29-.6-.02-.2.07-.43-.14-.58-.02-.21.08-.45-.07-.61-.14-.15.03-.4-.19-.5-.02-.01-.03-.08-.03-.13,0-.19.06-.41-.02-.56-.08-.17-.09-.34-.14-.52-.06-.22-.16-.42-.14-.66.02-.21,0-.43,0-.64,0-.12-.09-.15-.15-.23ZM3.6,12.89c0,.23.06.35.25.43.04.02.15-.03.17-.07.06-.16-.03-.37-.19-.47-.05-.03-.13-.02-.19,0-.03,0-.03.07-.05.11ZM7.55,23.63s-.13,0-.17.03c-.04.04-.07.14-.05.18.07.12.35.12.42,0,.02-.04-.02-.13-.05-.18-.01-.02-.08-.02-.15-.03ZM3.03,23.55c.1.12.22.07.33.07.07,0,.12-.05.11-.14,0-.04-.02-.09-.05-.12-.03-.02-.1-.04-.12-.02-.09.06-.17.14-.26.21ZM2.06,19.62c-.11-.02-.17.04-.18.14,0,.09.04.13.11.14.11.02.17-.04.18-.14,0-.09-.04-.12-.11-.14ZM9.33,5.88c.02-.09-.04-.12-.11-.14-.11-.02-.17.04-.18.14,0,.09.04.13.11.14.11.02.18-.03.18-.15ZM6.9,16.9c-.07,0-.14.01-.12.09.02.08.18.08.23,0,0-.01,0-.04,0-.05-.04-.02-.08-.03-.12-.05ZM30.46,7.86s.04-.04.05-.05c-.03-.02-.06-.04-.1-.04-.01,0-.03.03-.05.04.03.02.06.03.09.05Z"/>
      <path class="cls-1" d="M254.66,23.27c0,.16,0,.33,0,.5,0,.18-.06.38.14.51,0,.19,0,.38,0,.57.23.15.14.39.13.59,0,.16.18.21.16.37-.02.14-.06.32,0,.42.11.16.12.33.16.51.2.09.04.32.16.43.11.1.08.2.11.32.02.1.13.2.13.3,0,.15.05.27.15.37-.05.16.18.22.14.37-.04.16.09.25.15.37.1.2.14.44.33.57.13.09.06.26.2.35.06.04.05.19.11.23.21.13.22.4.4.56.28.27.59.52.78.89.06.12.18.26.37.29.12.02.21.17.31.27.16.14.31.29.46.43.25-.04.27.33.53.29.39.4.95.5,1.38.8.14.1.32-.02.45.14.08.1.26.07.34.2,0,.01.05,0,.07,0,.16.02.31-.04.47.1.08.07.3-.01.4.06.23.16.48.13.73.13.31.27.67.12,1.01.14.45.03.91,0,1.36,0,.23,0,.47-.02.7-.03.19-.23.45-.07.67-.11.2-.24.48-.13.73-.14.21,0,.35-.24.58-.16.13-.24.43-.07.61-.27.12-.14.38-.12.52-.29.2.04.35-.07.51-.15.24-.12.51-.19.7-.37.19-.18.45-.23.62-.44.09-.11.29-.11.39-.26.1-.16.29-.21.44-.31.14-.09.28-.21.35-.35.09-.17.41-.06.37-.34.11-.12.22-.25.35-.36.14-.12.22-.28.31-.45.05-.1.15-.19.25-.25.13-.07.05-.23.15-.3.21-.14.23-.39.38-.56-.03-.24.34-.27.29-.53.14-.15.18-.36.29-.52.1-.15.17-.32.25-.47.11-.24.28-.45.32-.72.25-.1.04-.42.25-.54.03-.2.22-.34.19-.57-.02-.11.17-.16.14-.3-.02-.09-.02-.19.07-.26.03-.03.06-.07.06-.11.02-.18-.07-.39.14-.52,0-.16-.02-.33.15-.44-.11-.23.17-.37.15-.58-.02-.19,0-.38,0-.57.51-.08,1.68-.09,2.55-.02.01.2.06.38-.08.59-.11.16-.1.43,0,.6.08.14.1.25.1.39,0,3.79,0,7.58,0,11.38,0,.04-.02.09-.03.13-.02.01-.04.04-.06.04-.76,0-1.52,0-2.28,0-.1-.11-.06-.29-.21-.36,0-.12,0-.24,0-.36-.02-.16-.17-.25-.15-.44.01-.14-.16-.26-.14-.44.01-.12-.17-.21-.16-.36-.17-.08-.08-.32-.25-.4.03-.17-.12-.24-.2-.35-.1-.15-.17-.31-.24-.47-.1-.23-.27-.3-.51-.25-.28.28-.57.57-.86.86-.13.13-.25.33-.41.39-.19.07-.29.25-.45.3-.11.04-.2.09-.29.16-.12.1-.19.26-.38.29-.12.02-.21.17-.32.26-.19-.07-.25.23-.44.15-.1.18-.34.13-.45.3-.1.16-.31.16-.46.27-.22-.11-.32.18-.51.14-.11.16-.35.12-.45.29-.17-.03-.3.08-.45.13-.15.04-.29.1-.44.15-.12.05-.25.03-.38.13-.09.07-.32-.03-.4.04-.19.15-.39.13-.59.13-.1,0-.17.03-.25.09-.1.08-.24.11-.35.19-.08.06-.23,0-.35.01-.23.01-.46-.05-.66.13-.07.06-.23,0-.35.01-.16.01-.32-.05-.46.11-.06.06-.22.03-.34.03-1.14,0-2.29,0-3.43,0-.18,0-.39.08-.52-.12-.14,0-.28,0-.42-.02-.16,0-.36.03-.48-.05-.14-.1-.26-.08-.39-.09-.13-.2-.33-.12-.51-.15-.18-.02-.4.09-.55-.05-.17-.16-.38-.01-.53-.1-.1-.06-.17-.14-.31-.13-.18.01-.3-.23-.51-.14-.2.08-.3-.22-.51-.14-.03.01-.11,0-.12-.03-.08-.14-.27-.07-.35-.2-.09-.14-.29.04-.38-.1-.09-.13-.28-.05-.35-.2-.41-.04-.72-.33-1.1-.45-.21-.07-.26-.35-.52-.31-.11-.16-.32-.15-.45-.3-.15-.17-.41-.2-.54-.41-.26.06-.28-.31-.53-.29-.05,0-.11-.07-.16-.12-.13-.1-.2-.27-.37-.31-.18-.03-.25-.2-.37-.3-.13-.11-.24-.23-.36-.35s-.24-.24-.35-.35c-.4-.4-.81-.8-1.21-1.22-.17-.18-.42-.31-.46-.6-.17-.17-.34-.34-.51-.51,0-.27-.35-.37-.35-.64-.16-.08-.08-.32-.25-.4-.15-.07-.14-.23-.2-.35-.39-.77-.77-1.54-1.18-2.3-.07-.14.02-.3-.1-.39-.11-.08-.06-.23-.15-.3-.15-.11-.03-.3-.11-.38-.14-.14-.13-.29-.13-.45,0-.2-.21-.36-.16-.58-.11-.08-.17-.18-.12-.3.11-.3-.2-.52-.15-.8-.24-.11-.04-.41-.24-.55-.08-.05-.05-.13-.05-.19,0-.38,0-.76,0-1.14-.05-.07-.15-.11-.15-.23,0-1.55,0-3.1,0-4.65,0-.19.23-.29.16-.52-.05-.15,0-.33,0-.49.2-.13.15-.35.12-.52-.04-.2.18-.27.16-.44-.01-.16-.04-.36.04-.48.1-.14.1-.26.09-.39-.02-.22.25-.35.15-.58.24-.09.06-.37.2-.49.17-.13-.02-.39.2-.5.02-.01.03-.09.02-.13-.03-.19.02-.36.15-.51-.11-.22.18-.32.14-.51.18-.2.25-.47.39-.7.15-.24.22-.53.37-.78.14-.23.21-.49.38-.7.02-.03,0-.09.02-.14,0-.02.03-.04.05-.05.21-.1.18-.38.36-.49.16-.1.12-.3.25-.4.1-.09.18-.18.22-.34.03-.14.28-.18.26-.39,0-.02.01-.04.03-.06.13-.14.26-.29.41-.4.16-.12.15-.32.29-.46.28-.27.63-.5.77-.89.2-.16.31-.42.6-.46.04,0,.07-.06.1-.1.24-.24.47-.47.71-.71.35-.08.51-.4.75-.61.09-.08.17-.15.3-.15.07-.17.32-.08.4-.25.08-.17.28-.14.4-.25.12-.1.27-.14.4-.25.14-.13.36-.17.52-.27.15-.1.32-.15.47-.25.15-.1.31-.17.47-.24.16-.07.3-.2.49-.21.11-.24.43-.02.54-.25.2-.02.34-.25.58-.16.1-.24.38-.05.49-.2.14-.18.4.02.5-.2,0-.02.04-.03.06-.03.19,0,.38-.01.57-.02.13-.2.35-.14.52-.12.21.03.3-.2.52-.16.17.03.39.08.52-.12.36,0,.71-.01,1.07,0,.12,0,.16-.09.23-.15.43,0,.86,0,1.28,0,.1,0,.18-.02.25-.1.05-.07.16-.07.19-.03.1.13.23.13.38.13.38,0,.76,0,1.14,0,.16,0,.34-.07.46.11.02.03.08.02.13.03.32.03.66-.09.94.14.01.01.05,0,.07,0,.23.03.48-.09.68.08.19.16.49-.07.64.2.01.02.09.02.14,0,.27-.09.46.24.73.15.08.1.17.17.3.13.14-.03.19.15.3.14.18-.02.3.11.44.14.15.04.25.21.44.16.14-.04.2.2.37.14.08.17.28.13.41.24.09.08.23.12.35.18.13.07.29.11.42.18.13.08.21.22.39.27.16.03.24.26.45.3.14.03.19.24.39.27.17.02.22.29.45.29.07,0,.13.12.2.19.35.35.71.71,1.06,1.06.04,0,.09.02.13.02.11,0,.24.04.25-.15,0-.14.19-.21.14-.37-.04-.14.15-.2.13-.3-.04-.25.22-.41.15-.66.23-.13.05-.47.29-.6-.1-.27.24-.45.15-.73-.02-.06-.02-.14.06-.19.15-.1.04-.26.1-.39.59-.07,1.7-.07,2.42,0,0,.35,0,.71,0,1.06,0,.18-.08.38.12.52.01,0,.02.04.02.06,0,.41,0,.81,0,1.22-.28.31-.11.68-.14,1.01-.03.33-.01.67,0,1,0,.05.09.11.14.16,0,1.57,0,3.14,0,4.72,0,.29-.14.61.13.88.05.05,0,.18,0,.28,0,.55,0,1.1,0,1.65,0,.09-.03.18.05.27.22.25.06.42-.13.58h-2.15c-.07-.07-.14-.14-.2-.2,0-.05,0-.09,0-.14-.02-.16.07-.36-.05-.48-.13-.13-.03-.31-.11-.38-.14-.14-.16-.29-.13-.45.04-.19-.22-.25-.15-.44.06-.17-.1-.3-.12-.44-.03-.17-.12-.29-.15-.44-.04-.15-.2-.25-.16-.44.03-.15-.21-.25-.14-.44.01-.03-.03-.08-.05-.12-.18-.35-.34-.72-.53-1.07-.19-.35-.32-.74-.56-1.06.02-.21-.24-.25-.26-.39-.02-.15-.16-.22-.17-.36-.02-.19-.18-.28-.3-.37-.15-.11-.09-.31-.24-.41-.12-.08-.21-.2-.31-.3-.12-.12-.22-.25-.36-.35-.12-.09,0-.39-.29-.3-.14-.13-.27-.27-.41-.4-.12-.12-.23-.25-.36-.35-.16-.13-.37-.17-.49-.36-.24,0-.31-.27-.51-.31-.14-.03-.19-.13-.28-.2-.05-.04-.09-.13-.17-.1-.19.07-.28-.13-.44-.15-.13-.01-.21-.19-.37-.14-.14.04-.19-.15-.3-.13-.23.04-.37-.17-.57-.19-.1-.15-.25-.1-.45-.11-.1-.12-.23-.29-.38-.47-.22.14-.47.3-.66.17-.22-.14-.45-.08-.66-.14-.19-.05-.37-.15-.59-.14-.21.02-.43,0-.64,0h-.64c-.21,0-.43.02-.64,0-.2-.02-.31.2-.51.15-.16-.03-.33,0-.5,0-.15.23-.39.13-.59.13-.19,0-.3.25-.51.15-.18-.09-.29.11-.44.16-.25.08-.45.31-.74.27-.1.17-.36.11-.45.3-.08.17-.32.08-.4.25-.08.17-.29.13-.4.25-.11.12-.26.22-.35.36-.1.16-.31.09-.41.25-.07.12-.2.21-.3.31-.17.17-.34.34-.5.51.01.26-.28.31-.35.5-.1.26-.33.42-.42.68-.06.16-.14.33-.28.46-.11.11-.18.3-.24.46-.06.16-.23.3-.26.46-.04.18-.18.31-.21.49-.19.11.02.39-.2.49.03.26-.22.45-.17.72-.23.13-.04.47-.28.6-.01,0,0,.04,0,.07-.02.16.05.32-.09.46-.11.11-.03.27-.05.41-.02.14-.19.2-.15.37.03.14,0,.28,0,.4-.06.1-.14.07-.2.08-.07,0-.16,0-.19.05-.07.08-.04.17.04.24.04.03.07.07.1.1.16.19.16.3-.03.54,0,.19.02.38,0,.57-.04.29.14.62-.14.87,0,.14.02.29,0,.43-.05.34.13.7-.13,1.02-.05.06,0,.19,0,.28,0,1.45,0,2.91,0,4.36,0,.16-.07.34.11.45,0,.16.02.33.03.49,0,.14,0,.26.11.39.08.09.08.26-.05.38-.17.16-.02.24.08.35ZM253.79,5.65c.05.05.08.09.12.12.16.15.21.15.34.02.04-.04.12-.06.1-.15-.03-.03-.07-.07-.1-.1-.14-.12-.18-.12-.29-.02-.05.04-.11.09-.16.13ZM249.94,21.55c-.11-.11-.21-.06-.29-.07-.09-.01-.12.04-.14.11-.01.07,0,.15.08.17.06.02.13.03.19-.04.04-.06.1-.1.16-.17ZM256.59,33.22c-.06.08-.17.12-.2.34.14-.13.29.05.41-.13-.08-.08-.14-.14-.21-.21ZM255.52,33.76c-.01-.07-.06-.11-.14-.11-.11,0-.16.06-.14.18.01.07.05.12.14.11.11,0,.16-.07.14-.18ZM251.44,15.76s.09,0,.14,0c.02,0,.05-.04.05-.05-.01-.03-.03-.09-.05-.09-.09-.01-.19,0-.28,0-.02,0-.05.04-.05.05.01.03.03.08.05.09.04.02.09,0,.14,0ZM253.23,25.92s.08-.03.12-.05c0,0,0-.04,0-.05-.05-.07-.21-.07-.23,0-.02.08.05.1.12.09ZM249.08,8.31s.08-.03.12-.05c0,0,0-.04,0-.05-.05-.07-.21-.07-.23,0-.02.08.05.1.12.09ZM254.33,8.01s.05-.03.05-.05c0-.02-.03-.04-.05-.05-.04-.01-.09-.03-.13-.02-.04,0-.07.04-.11.07.04.02.07.06.11.07.04,0,.09-.01.13-.02ZM250.17,13.73s.04-.04.05-.05c-.03-.02-.06-.04-.1-.04-.01,0-.03.03-.05.04.03.02.06.03.09.05ZM247.15,26.06s-.05.04-.04.05c0,.03.03.06.04.1.02-.02.05-.04.04-.05,0-.03-.03-.06-.04-.1Z"/>
      <path class="cls-1" d="M286.74,3.3V.93s.03-.04.05-.05c.02,0,.05,0,.07,0,6.13,0,12.26,0,18.39,0,.02,0,.04.03.08.07,0,.4,0,.83,0,1.25,0,.13-.06.21-.12.31-.06.11-.07.26.05.38.11.11.08.25.01.41-.75,0-1.51,0-2.27,0-.19,0-.35.04-.52.13-.15.08-.38-.06-.52.14-.02.02-.09,0-.13.02-.07.01-.51.21-.54.24-.24.24-.47.48-.71.71-.15.15-.24.34-.25.53-.01.16-.15.23-.16.37,0,.11.03.24-.1.32-.02.01-.05.03-.05.05-.02.21.07.44-.06.62-.14.18-.06.36-.08.54-.02.24.02.48-.01.71-.04.34.13.7-.13,1.02-.05.06,0,.19,0,.28,0,6.94,0,13.88,0,20.82,0,.16-.06.33.11.46.04.03.02.13.03.2.03.34-.1.7.14,1.02.01.02,0,.05,0,.07.01.39.02.39.28.89.04.07.03.17.11.24.09.08.17.17.25.25.12.12.22.27.36.35.15.09.31.16.47.24.15.07.27.16.45.13.13.19.34.17.51.14.25-.04.4.23.66.16.2-.05.43-.01.64-.01h4.08c.17,0,.33,0,.5,0,.18,0,.38.04.51-.14.17,0,.34.01.5,0,.13-.01.21-.17.37-.14.14.03.26-.01.39-.11.11-.08.35,0,.46-.08.13-.1.33-.07.41-.24.23.09.38-.12.58-.17.09-.02.2-.09.29-.15.15-.09.27-.23.45-.31.16-.07.26-.32.42-.36.18-.05.27-.18.39-.28.14-.13.27-.27.41-.4.14-.13.15-.33.3-.45.12-.1.23-.2.27-.39.04-.15.25-.24.3-.45.03-.12.19-.18.26-.32.21-.46.42-.93.69-1.36.07-.11-.04-.27.1-.39.1-.08.06-.27.21-.34-.07-.2.13-.35.13-.51,0-.19.18-.28.15-.44-.02-.16.13-.26.13-.37,0-.18.08-.3.16-.44.11-.21.19-.42.14-.66-.04-.18.11-.25.2-.35h2.19c.09.12.05.24.05.36,0,2.72,0,5.44,0,8.16,0,.21.04.41-.14.59-.05.05,0,.18,0,.28v2.12s-.05.06-.07.07c-.02,0-.05,0-.07,0-10.57,0-21.13,0-31.7,0-.02,0-.04-.03-.07-.05v-2.33c.11-.1.23-.04.35-.05.19-.01.38,0,.57,0,.17,0,.34.03.5,0,.17-.04.31-.18.52-.14.16.03.33.01.5,0,.13,0,.2-.18.37-.15.11.02.24,0,.37,0,.23-.13.35-.43.65-.47.1-.13.29-.2.31-.37.03-.21.27-.25.3-.45.02-.15.18-.26.14-.44-.02-.11.17-.15.14-.3-.02-.09-.02-.19.07-.25.02-.01.05-.03.05-.05.02-.16-.02-.36.07-.47.1-.14.08-.26.1-.39,0-.02,0-.05,0-.07v-.29s0-.05,0-.07c0-.02.03-.04.04-.05.02-.02.03-.03.05-.05.02-.02.04-.03.05-.05,0-.02,0-.05,0-.07V8.89s0-.05,0-.07c.1-.27-.21-.45-.16-.73.05-.28.01-.57.01-.86,0-.26,0-.52,0-.79,0-.14-.18-.2-.15-.37.03-.13.03-.27-.11-.39-.1-.09.04-.28-.11-.38-.16-.11.02-.32-.15-.44-.06-.04-.05-.19-.11-.23-.18-.13-.2-.36-.35-.5-.1-.09-.17-.21-.32-.26-.21-.06-.39-.22-.6-.27-.24-.06-.45-.25-.73-.15-.21-.22-.48-.14-.73-.14-.54-.01-1.09,0-1.65,0ZM295.39,27.49c.05-.09.08-.2.15-.29.06-.08.03-.14-.02-.13-.14.02-.2-.15-.29-.14-.22.03-.35-.08-.48-.22-.07-.08-.16-.11-.24-.04-.04.04-.04.12-.05.19-.02.1.04.16.1.24.1.15.32.08.4.24.09.18.27.16.44.15ZM293.74,33.83s0-.1-.03-.13c-.02-.03-.08-.05-.12-.05-.04,0-.1.02-.12.04-.08.13.05.33-.14.43,0,0,0,.04,0,.05.04.02.08.06.12.05.21-.06.29-.18.29-.39ZM292.31,34.3c.17.09.35.07.52.03.02,0,.04-.08.04-.12,0-.04-.02-.1-.05-.12-.23-.1-.39.02-.52.2ZM289.48,3.16s-.09.01-.13.02c-.02,0-.03.03-.05.05.06.02.12.06.18.07.03,0,.07-.04.11-.07-.04-.02-.07-.05-.11-.07ZM316.21,31.22s.08-.03.12-.05c0,0,0-.04,0-.05-.05-.07-.21-.07-.23,0-.02.08.05.1.12.09ZM295.32,29.07s.08-.03.12-.05c0,0,0-.04,0-.05-.05-.07-.21-.07-.23,0-.02.08.05.1.12.09ZM308.03,34.17s-.03-.06-.05-.09c-.02.02-.05.04-.04.05,0,.03.03.06.04.1.02-.02.03-.03.05-.05ZM296.01,19.24s-.03-.03-.05-.05c-.02.03-.04.06-.04.1,0,.01.03.03.04.05.02-.03.03-.06.05-.09Z"/>
      <path class="cls-1" d="M238.77,36.64c-.12,0-.19.01-.26.01-2.46,0-4.91,0-7.37,0-.16,0-.32.04-.46-.12-.04-.05-.22-.06-.27-.01-.18.17-.39.13-.59.14-2.91,0-5.82,0-8.73,0-.11,0-.24.05-.35-.05v-2.33c.11-.1.24-.05.35-.05.33,0,.67,0,1,0,.28-.29.63-.08.94-.14.13-.03.22-.14.37-.16.35-.05.62-.33.97-.43.12-.03.21-.18.31-.29.09-.1.06-.26.2-.35.1-.06.17-.16.15-.29.26-.13.26-.41.35-.64.02-.04.06-.07.06-.12.04-.22-.09-.48.14-.66,0-.24.02-.48,0-.71-.01-.22.22-.34.16-.59-.05-.2-.01-.43-.01-.64v-5.01c0-5.7,0-11.4,0-17.1,0-.2.08-.43-.14-.58,0-.19.03-.39-.02-.57-.02-.1-.15-.17-.12-.3.02-.11-.07-.16-.11-.24-.05-.1-.02-.23-.06-.33-.04-.08-.11-.13-.12-.24-.01-.1-.18-.16-.14-.3-.15-.15-.33-.29-.44-.46-.11-.18-.31-.2-.46-.29-.17-.1-.35-.19-.53-.27-.04-.02-.07-.06-.11-.07-.18-.03-.39.07-.52-.13-.17,0-.33-.01-.5-.01-.55,0-1.1,0-1.65,0-.02,0-.04-.02-.07-.05V.93s.03-.04.05-.05c.02,0,.05,0,.07,0,5.94,0,11.88,0,17.82,0,.02,0,.04.03.07.05v2.33c-.11.1-.23.05-.35.05-.45,0-.91,0-1.36,0-.18,0-.39-.09-.55.05-.15.14-.32.03-.47.09-.24.1-.48.23-.71.36-.18.1-.24.37-.5.35-.02,0-.05.03-.05.05-.01.32-.39.39-.45.67l-.14.44c.06.22-.21.35-.15.59.05.18,0,.38,0,.57-.25.26-.13.58-.13.87,0,.2-.2.3-.16.51.04.18,0,.38,0,.57v1.72c0,.19,0,.38,0,.57,0,.15-.02.27-.14.38-.05.04-.05.23,0,.27.18.15.13.34.14.52,0,3.41,0,6.82,0,10.23,0,.21.04.42-.14.59-.04.03-.04.16,0,.21.2.25.14.53.14.8,0,1.96,0,3.91,0,5.87,0,.18-.08.39.12.52,0,.16.02.33.02.49,0,.21,0,.43,0,.64.19.16.14.38.14.58.24.1.08.35.19.49.11.14.12.35.3.45.12.07.09.24.2.35.48.5.48.5,1.39.81.08.03.11.14.23.14.19,0,.39.03.57-.01.19-.04.28.16.44.15.12,0,.24,0,.36,0h.97s.07.05.07.07c0,.05,0,.1,0,.14v2.2ZM229.46,3.39c.16.07.29.09.38.2.02.03.15.04.18-.05.02-.05.02-.13,0-.18-.03-.06-.09-.1-.14-.15-.07-.07-.16-.06-.24,0-.05.04-.1.1-.18.18ZM228.53,25.85c-.12-.04-.18-.07-.24-.07-.04,0-.07.04-.11.07.04.02.07.07.11.07.06,0,.12-.03.24-.07Z"/>
    </g>
  </g>
</svg>