<?xml version="1.0" encoding="UTF-8"?>
<svg id="Layer_2" data-name="Layer 2" xmlns="http://www.w3.org/2000/svg" viewBox="0 0 320.15 96.27">
  <defs>
    <style>
      .cls-1 {
        fill: #fff;
      }

      .cls-1, .cls-2, .cls-3 {
        stroke-width: 0px;
      }

      .cls-1, .cls-3 {
        fill-rule: evenodd;
      }

      .cls-2, .cls-3 {
        fill: #231f20;
      }
    </style>
  </defs>
  <g id="Foreground">
    <g>
      <path class="cls-1" d="M78.45,92.23c.22-.22.36-.5.58-.86.5-1.01.94-2.23,1.66-3.6.65-1.3,1.01-1.94,1.58-3.02-.72.29-1.37.22-2.02.07-.65-.14-1.3-.43-1.8-.86v8.28h0ZM78.45,82.94v-3.6c.36,0,.65.07,1.01.14.94.14,1.87.43,2.59,1.01,1.15,1.01,1.37,1.94.94,2.88-.36.86-1.58,1.01-2.66.79-.86-.14-1.44-.5-1.87-1.22h0ZM78.45,76.18v-9.43c.36.22.65.43.86.65,1.94,1.73,1.37,5.04-.86,8.78ZM76.51,91.87c-.14.43.43,1.01.94.94.36,0,.72-.22,1.01-.58v-8.28c-.14-.07-.22-.22-.36-.36l-1.58,8.28h0ZM78.45,66.74v9.43c-2.59,4.32-7.42,9.22-13.18,12.89-.43.29-.86.5-1.3.79v-9.65c7.42-5.54,11.52-12.67,9.86-16.56,1.51.94,3.46,2.23,4.61,3.1h0ZM78.45,79.34v3.6c-.07-.14-.14-.22-.22-.36l-.43-.86-1.01,5.04c-1.01-.07-1.8-.22-2.95-.5-1.08-.29-1.94-.58-2.59-.86,2.23-1.94,4.32-4.1,5.9-6.19.43.07.86.07,1.3.14h0ZM63.98,79.42c1.94-1.51,3.53-3.1,4.61-4.32-1.08-1.22-2.45-3.17-2.88-4.46-.5-1.73-.79-3.1-.43-4.46-.43.5-.86,1.01-1.3,1.44v11.81ZM63.98,67.61v11.81c-.29.29-.58.5-.86.72-.14-.14-.43-.5-.65-.86-.5-.65-1.08-1.51-1.58-2.52-.72-1.44-1.15-2.74-1.44-4.46,1.3-1.22,3.02-2.95,3.02-2.95,0,0,.72-.72,1.51-1.73h0ZM63.98,80.21c-5.76,4.32-13.46,7.63-22.03,7.63s-16.42-3.38-22.18-7.78v9.72c7.42,4.39,14.76,5.9,22.18,5.83,7.42.07,14.69-1.44,22.03-5.76v-9.65h0ZM19.77,79.27v-11.66c.86,1.01,1.44,1.66,1.44,1.66,0,0,1.87,1.94,3.17,3.17-.29,1.73-.72,2.88-1.44,4.32-.5,1.01-1.08,1.87-1.58,2.52-.22.36-.43.58-.58.79-.36-.29-.65-.5-1.01-.79ZM19.77,67.61v11.66s-.07,0-.07-.07c-1.73-1.37-3.24-2.88-4.54-4.32,1.22-1.15,2.52-2.95,2.95-4.25.5-1.73.79-3.1.43-4.46.43.5.86,1.01,1.22,1.44h0ZM19.77,80.06c-7.27-5.54-11.3-12.6-9.72-16.42-1.51.94-3.46,2.23-4.61,3.1v9.36c2.52,4.39,7.42,9.29,13.18,12.96.36.22.79.5,1.15.72v-9.72h0ZM5.44,92.23v-8.28c.07-.14.14-.22.29-.36l1.58,8.28c.14.43-.43,1.01-.94.94-.36,0-.65-.22-.94-.58h0ZM5.44,82.87v-3.53c.43-.07.86-.07,1.3-.14.79,1.01,1.66,2.09,2.66,3.17.79.79,1.66,1.58,2.52,2.38l.72.65c-.72.29-1.51.58-2.66.86-1.15.29-1.94.43-2.95.5l-1.01-5.04-.43.86c-.07.07-.14.22-.14.29ZM5.44,66.74v9.36c-2.3-3.74-2.81-6.98-.86-8.71.22-.14.5-.36.86-.65h0ZM5.44,79.34v3.53c-.5.72-1.08,1.15-1.94,1.3-1.08.22-2.3.07-2.66-.79-.43-.94-.22-1.87.94-2.88.72-.58,1.66-.86,2.59-1.01.36-.07.72-.14,1.08-.14h0ZM5.44,83.95c-.5.43-1.15.72-1.8.86-.72.14-1.37.22-2.09-.07.58,1.08.94,1.73,1.58,3.02.72,1.37,1.15,2.59,1.66,3.6.22.36.43.65.65.86v-8.28Z"/>
      <polygon class="cls-3" points="17.32 86.47 17.18 83.59 19.84 82.94 18.98 82.3 16.75 82.87 16.75 82.87 17.83 81.43 17.11 80.86 14.51 84.38 15.23 84.89 16.39 83.38 16.39 83.45 16.46 85.82 17.32 86.47"/>
      <path class="cls-3" d="M22.87,87.41c.29-.58.43-1.08.29-1.66-.07-.58-.5-1.08-1.08-1.44-.36-.22-.79-.36-1.15-.36v.79c.22,0,.5.07.79.22.65.36.79,1.15.29,1.94-.29.5-.72.79-1.08.79v.79c.22,0,.36,0,.58-.07.58-.07,1.01-.5,1.37-1.01ZM20.92,83.95c-.22,0-.43.07-.58.07-.58.14-1.08.5-1.37,1.08-.36.58-.43,1.22-.29,1.8.14.5.5.94,1.08,1.22.36.29.79.36,1.15.36v-.79c-.29.07-.58,0-.79-.14-.65-.43-.86-1.15-.36-1.94.29-.5.72-.79,1.15-.86v-.79Z"/>
      <polygon class="cls-3" points="30.14 88.06 26.76 86.83 26.54 87.48 27.69 87.91 26.47 91.37 27.33 91.66 28.55 88.27 29.71 88.63 30.14 88.06"/>
      <polygon class="cls-3" points="32.66 93.24 32.88 92.52 31.29 92.09 31.58 91.01 32.95 91.37 33.16 90.65 31.8 90.29 32.08 89.28 33.38 89.64 33.81 88.99 31.36 88.34 30.21 92.59 32.66 93.24"/>
      <polygon class="cls-3" points="40.43 89.93 36.91 89.57 36.76 90.29 38.06 90.43 37.7 94.03 38.64 94.1 38.99 90.5 40.15 90.65 40.43 89.93"/>
      <path class="cls-3" d="M45.33,94.18l-1.87-4.32h-.36v1.22c.07.14.14.29.22.5l.29.86h-.5v.72h.79l.43,1.08,1.01-.07ZM43.1,89.86h-.36l-1.58,4.39h.86l.36-1.08h.72v-.72h-.43l.29-.86c.07-.22.14-.36.14-.5h0v-1.22Z"/>
      <path class="cls-3" d="M50.95,93.46l-.72-4.32-.86.14.36,2.16c0,.22.07.5.14.65h-.07c-.14-.14-.29-.29-.5-.43l-2.16-2.02-.86.07.65,4.32.94-.14-.43-2.3c0-.22-.07-.5-.07-.65h0c.14.22.29.36.5.5l2.23,2.09.86-.07Z"/>
      <path class="cls-3" d="M56.56,91.44l-.58-1.8-.86.29.43,1.44c-.14.07-.36.22-.58.29-.86.22-1.58-.29-1.87-1.08-.22-.72,0-1.51,1.15-1.87.43-.14.79-.14,1.22-.07l-.22-.79c-.43,0-.79,0-1.37.22-1.44.43-2.09,1.66-1.66,2.88.36,1.15,1.44,1.87,2.74,1.44.72-.22,1.22-.58,1.58-.94Z"/>
      <path class="cls-3" d="M61.96,89.5l-2.81-2.59v1.15l.5.5-.5.22v.79l1.08-.5.86.79.86-.36ZM59.15,86.9l-.65-.65-.65.29.29,4.68.79-.36-.07-1.15.29-.14v-.79l-.36.14-.07-.86c0-.22,0-.43-.07-.58h0c.07.14.22.29.36.43l.14.14v-1.15Z"/>
      <polygon class="cls-3" points="63.4 83.52 60.38 85.39 60.74 86.04 61.82 85.32 63.76 88.42 64.55 87.91 62.61 84.89 63.62 84.24 63.4 83.52"/>
      <path class="cls-3" d="M69.59,84.24l-3.1-1.73v.94l.65.43-.65.43v2.3l.5-.36-.36-1.08,1.15-.94,1.01.58.79-.58ZM66.5,82.51l-1.01-.65-.58.43,1.37,4.54.21-.22v-2.3l-.07.14-.29-.94c-.07-.14-.14-.36-.22-.5h0c.14.14.29.22.43.36l.14.07v-.94Z"/>
      <path class="cls-3" d="M79.39,90.58c.36-.79.72-1.8,1.3-2.81.65-1.3,1.01-1.94,1.58-3.02-.72.29-1.37.22-2.02.07-.29-.07-.58-.14-.86-.22v-.72c.29.14.58.22.94.29,1.08.22,2.3.07,2.66-.79.43-.94.22-1.87-.94-2.88-.72-.58-1.66-.86-2.59-1.01h-.07v-.72c.07.07.14.07.22.07.94.14,2.02.43,2.88,1.15,1.37,1.15,1.66,2.3,1.01,3.82-.79,1.66-1.37,2.52-2.23,4.25-.72,1.37-1.15,2.66-1.66,3.6-.07.14-.14.22-.22.36v-1.44h0ZM79.39,75.89v-1.44c1.44-2.95,1.58-5.54,0-6.98v-.86c.14.14.22.22.36.29,2.23,1.94,1.73,5.26-.36,9ZM76.51,91.87c-.14.43.43,1.01.94.94.65-.07,1.08-.58,1.58-1.44.14-.29.22-.5.36-.79v1.44c-.43.79-1.01,1.37-1.87,1.44-.79.07-1.87-.72-1.66-1.73l.86-4.32c-1.08-.07-1.87-.22-3.1-.5-1.22-.36-2.16-.65-2.95-1.01-.94.79-2.02,1.58-3.02,2.3v-.79c5.47-3.96,9.79-8.86,11.74-12.96v1.44c-.5.94-1.08,1.8-1.73,2.74.5,0,1.08.07,1.73.14v.72c-.79-.14-1.58-.22-2.23-.29-1.58,2.09-3.67,4.25-5.9,6.19.65.29,1.51.58,2.59.86,1.15.29,1.94.43,2.95.5l1.01-5.04.43.86c.29.58.65,1.01,1.15,1.3v.72c-.5-.22-.94-.58-1.3-1.01l-1.58,8.28h0ZM79.39,66.6c-1.58-1.15-6.55-4.46-6.7-4.54-.86-.65-1.58-.79-2.66-.79-1.01.07-1.73.43-2.38.94v7.99c.5-.22,1.08-.29,1.66-.22.86,0,1.8.29,2.3,1.01-.65,1.08-1.51,2.3-2.45,3.46-.5-.43-1.08-1.08-1.51-1.73v1.22c.29.43.65.79.94,1.15-.29.36-.58.72-.94,1.08v.94c4.68-4.54,7.13-9.5,6.41-12.74,0-.22-.07-.5-.14-.72,1.94,1.3,4.54,3.02,5.4,3.74l.07.07v-.86ZM67.65,62.21v7.99c-.36.14-.72.43-.94.72.22.58.58,1.22.94,1.8v1.22c-.79-1.15-1.58-2.38-1.94-3.31-.5-1.73-.79-3.1-.43-4.46-1.37,1.58-2.81,3.17-2.81,3.17,0,0-1.73,1.73-3.02,2.95.29,1.73.72,3.02,1.44,4.46.5,1.01,1.08,1.87,1.58,2.52.22.36.5.72.65.86,1.8-1.37,3.38-2.74,4.54-3.96v.94c-5.9,5.69-15.19,10.73-25.7,10.73s-19.87-5.11-25.71-10.87v-.94c1.01,1.08,2.16,2.16,3.46,3.17.29.29.65.58,1.08.86.14-.22.36-.43.58-.79.5-.65,1.08-1.51,1.58-2.52.72-1.44,1.15-2.59,1.44-4.32-1.3-1.22-3.17-3.17-3.17-3.17,0,0-1.3-1.51-2.66-3.1.36,1.37.07,2.74-.43,4.46-.29.86-1.08,2.09-1.87,3.1v-1.08c.36-.58.72-1.15,1.01-1.66-.22-.36-.58-.65-1.01-.79v-8.06c.5.43,1.01,1.01,1.37,1.66,1.51,2.09,4.1,5.04,4.1,5.04,0,0,1.94,2.02,3.24,3.24l.14.29c-.36,1.87-.79,3.17-1.58,4.68-.5,1.08-1.15,1.94-1.58,2.59-.29.36-.43.65-.58.86,5.33,3.82,12.38,6.7,20.59,6.7s15.26-2.88,20.66-6.7c-.22-.22-.43-.5-.72-.86-.43-.65-1.08-1.51-1.58-2.59-.79-1.51-1.22-2.81-1.58-4.68l.14-.29c1.29-1.22,3.24-3.24,3.24-3.24,0,0,2.59-2.95,4.1-5.04l.07.07c.36-.65.86-1.22,1.37-1.66h0ZM67.65,87.41c-.79.58-1.58,1.15-2.38,1.66-7.85,4.97-15.48,6.62-23.33,6.55-7.85.07-15.48-1.58-23.33-6.55-.79-.5-1.66-1.08-2.38-1.66v.79c.65.5,1.3.94,2.02,1.44,7.92,5.04,15.77,6.7,23.69,6.62,7.92.07,15.77-1.58,23.69-6.62.65-.5,1.37-.94,2.02-1.44v-.79ZM16.24,62.14v8.06c-.5-.22-1.08-.29-1.58-.22-.94,0-1.8.29-2.3.94.65,1.15,1.44,2.3,2.38,3.46.5-.5,1.01-1.08,1.51-1.73v1.08c-.36.43-.72.86-1.08,1.15.36.36.72.79,1.08,1.15v.94c-4.97-4.9-7.49-10.22-6.19-13.32-1.94,1.22-4.61,3.02-5.47,3.74,0,0-.07.07-.14.14v-.86c1.51-1.15,5.54-3.82,6.98-4.75.79-.5,1.51-.65,2.52-.65.94.07,1.66.36,2.3.86h0ZM16.24,87.41c-5.54-3.96-9.86-8.93-11.81-13.1v1.51c.5.86,1.15,1.8,1.8,2.74-.5.07-1.15.14-1.8.22v.72c.86-.14,1.66-.22,2.3-.29.79,1.01,1.66,2.09,2.66,3.17.79.79,1.66,1.58,2.52,2.38l.72.65c-.72.29-1.51.58-2.66.86-1.15.29-1.94.43-2.95.5l-1.01-5.04-.43.86c-.29.58-.65,1.01-1.15,1.3v.72c.5-.22.94-.58,1.3-1.01l1.58,8.28c.14.43-.43,1.01-.94.94-.65-.07-1.08-.58-1.58-1.44-.07-.29-.22-.5-.36-.79v1.44c.5.79,1.01,1.37,1.87,1.44.86.07,1.87-.72,1.66-1.73l-.79-4.32c1.01-.07,1.8-.22,3.02-.5,1.22-.36,2.16-.65,3.02-1.01.94.79,1.94,1.58,3.02,2.3v-.79ZM4.43,66.67v.86c-1.51,1.44-1.3,3.89,0,6.77v1.51c-2.02-3.67-2.45-7.06-.29-8.93.07-.07.22-.14.29-.22h0ZM4.43,78.77v.72h-.07c-.94.14-1.87.43-2.59,1.01-1.15,1.01-1.37,1.94-.94,2.88.36.86,1.58,1.01,2.66.79.36-.07.65-.14.94-.29v.72c-.29.07-.58.14-.79.22-.72.14-1.37.22-2.09-.07.58,1.08.94,1.73,1.58,3.02.58,1.01.94,2.02,1.3,2.81v1.44c-.07-.14-.14-.22-.22-.36-.5-.94-.94-2.23-1.66-3.6-.86-1.73-1.44-2.59-2.23-4.25-.65-1.51-.36-2.66,1.01-3.82.86-.72,1.94-1.01,2.88-1.15.07,0,.14,0,.22-.07Z"/>
      <path class="cls-1" d="M76.36.65v36.43s.14,3.24-1.15,8.35c-1.37,5.18-4.1,12.17-9.94,19.66-4.54,5.76-10.37,10.51-15.12,13.68-4.18,2.88-7.49,4.61-8.21,4.97-.72-.36-4.25-2.09-8.64-5.11-4.97-3.38-11.09-8.42-15.77-14.83-4.68-6.62-7.2-13.61-8.5-18.86-1.3-5.33-1.37-8.93-1.37-8.93V.65h68.69Z"/>
      <path class="cls-3" d="M15.67,8.71h52.7v28.08s0,9.86-7.92,21.46c-6.77,9.94-18.5,16.27-18.5,16.27,0,0-12.96-7.78-19.44-17.93-7.2-11.45-6.84-21.53-6.84-21.53V8.71Z"/>
      <path class="cls-3" d="M76.36.65h-34.34v-.65h34.99v37.08c0,.07.58,13.25-11.23,28.44-8.86,11.3-22.82,18.43-23.76,18.94v-.72c.79-.43,4.03-2.16,8.14-4.97,4.75-3.17,10.58-7.92,15.12-13.68,5.83-7.49,8.57-14.47,9.94-19.66,1.3-5.11,1.15-8.35,1.15-8.35V.65ZM42.02.65H7.68v35.35s.07,3.6,1.37,8.93c1.3,5.26,3.82,12.24,8.5,18.86,4.68,6.41,10.8,11.45,15.77,14.83,4.39,3.02,7.92,4.75,8.64,5.11h.07v.72c-.07,0-.07.07-.07.07,0,0-4.03-1.87-9-5.33-5.04-3.46-11.23-8.5-15.91-15.05-9.58-13.46-10.08-28.15-10.08-28.15V0h35.06v.65Z"/>
      <path class="cls-3" d="M73.27,3.96c.79,2.02,1.3,4.1,1.51,5.76.5,3.89-.94,4.46-2.38,3.67v-4.39c.36.22.58.5.72.86-.07-.79-.14-1.15-.43-2.3-.07-.29-.14-.5-.29-.79v-3.1c.29.07.58.22.86.29h0ZM72.4,47.3v-3.6c1.44-4.97,1.22-10.01,1.22-10.01-.5.72-.86,1.3-1.22,1.87v-2.38c.72-1.08,1.58-2.3,2.38-4.03,0,0,.72,8.35-1.22,15.62-.29,1.22-.72,2.02-1.15,2.52h0ZM72.4,40.32c.14-.36.29-.72.36-1.08.07-.72-.07-1.15-.36-1.3v2.38h0ZM72.4,30.82c1.15-2.02,2.09-4.1,2.52-6.26.86-4.46-1.37-4.1-2.52-2.38v3.02c.43.14,1.01-.29,1.22-.94-.36,1.44-.72,2.52-1.22,3.53v3.02h0ZM72.4,19.94v-4.82c1.44-.72,2.66,2.02,1.8,4.1-.58,1.3-1.37,1.22-1.8.72ZM72.4,13.39c-.94-.5-1.87-1.8-1.94-3.02-.14-1.94,1.08-2.02,1.94-1.37v4.39h0ZM72.4,6.77c-.14-.5-.36-1.01-.58-1.44-.58-.29-1.37-.58-2.23-.79-1.08-.29-1.44-.36-2.23-.5,1.22.5,2.09,2.88-.5,2.74-3.02-.22-6.12-5.26.65-4.39,1.44.22,3.17.65,4.9,1.3v3.1h0ZM72.4,15.12v4.82c-.22-.36-.36-.86-.29-1.37-.58,1.66-.65,2.52-.79,4.32v6.98c.43-.72.79-1.44,1.08-2.09v3.02c-.72,1.3-1.58,2.52-2.45,3.74v-11.74c.07-1.8.22-2.88.72-4.61.5-1.87,1.15-2.81,1.73-3.1h0ZM72.4,22.18c-.29.5-.5,1.08-.58,1.66,0,.86.22,1.3.58,1.37v-3.02h0ZM72.4,33.19c-1.08,1.73-2.09,3.02-2.66,5.26-1.22,4.82,1.66,3.96,2.66,1.87v-2.38c-.36-.29-1.08.14-1.37.79.43-1.37.86-2.23,1.37-3.17v-2.38h0ZM72.4,43.7v3.6c-1.66,1.94-3.67-1.44-2.59-3.74,1.01-1.94,2.45-.36,2.38,1.01.07-.29.14-.58.22-.86h0ZM62.18,66.38v-2.81c.86-.36,1.8-.72,2.81-1.3,0,0-.94,1.8-2.81,4.1h0ZM62.18,62.28c2.3-.79,4.54-1.87,5.98-3.89,3.31-4.68-.14-4.54-2.02-2.52-1.3,1.44.14,2.16,1.22,1.51-1.8,1.87-2.95,2.45-4.75,3.24,0,0,2.66-5.26,6.05-8.93-.86,1.01-.72,2.74,1.3,1.73,2.81-1.44,2.09-7.92-2.09-2.95-1.44,1.66-2.66,3.46-3.74,4.97-.72,1.08-1.37,2.09-1.94,3.02v3.82ZM62.18,58.46v3.82c-.94.36-1.94.65-2.88.86.86-1.37,1.73-2.95,2.88-4.68h0ZM62.18,63.58v2.81c-1.87,2.38-4.54,5.26-8.06,7.78-5.33,3.74-4.97-1.51-2.09-2.95,2.02-1.01,2.16.79,1.22,1.73,4.75-2.66,8.14-7.63,8.14-7.63-2.23.72-3.53,1.01-5.54,2.38,1.08-.5,2.59.07,1.22,1.51-1.94,2.02-6.48,1.08-2.02-2.52,2.16-1.73,4.39-2.09,7.13-3.1h0ZM41.95,81.79h0c2.02-.86,3.67-1.87,4.97-2.88,5.47-4.18-.5-5.69-2.59-3.53-1.8,1.8.22,2.59,1.73,2.09,0,0-1.08.72-2.16,1.37-.65.36-1.37.79-1.94,1.01v1.94h0ZM41.95,7.2v-1.87c2.59-1.44,5.4-2.66,8.28-3.17,6.41-1.15,3.89,2.95.72,3.1-2.23.14-1.73-1.44-.43-1.8-2.66.72-4.18,1.22-6.41,2.38h7.63c2.02,0,4.32-.29,6.19-.79-1.51.22-2.95-1.22-.65-2.16,3.31-1.3,8.21,1.8,1.08,3.6-2.02.5-4.46.72-6.55.72h-9.86ZM41.95,3.96c1.08-.58,2.09-1.22,3.1-1.87h-3.1v1.87ZM41.95,2.09v1.87c-2.59,1.44-5.4,2.66-8.28,3.17-6.41,1.15-3.96-2.95-.72-3.1,2.23-.14,1.73,1.44.43,1.8,2.66-.65,4.18-1.15,6.41-2.38h-7.63c-2.02,0-4.32.29-6.19.86,1.51-.22,2.95,1.22.65,2.09-1.87.72-4.32.07-4.68-1.01v-.58c.22-.65,1.3-1.37,3.6-2.02,2.02-.43,4.46-.65,6.55-.72h9.86ZM41.95,5.33c-1.08.58-2.09,1.22-3.1,1.87h3.1v-1.87h0ZM41.95,79.85v1.94c-1.94-.86-3.67-1.87-4.97-2.88-5.47-4.18.5-5.69,2.59-3.53,1.8,1.8-.22,2.59-1.73,2.09,0,0,1.08.72,2.16,1.37.65.36,1.37.79,1.94,1.01h0ZM21.93,66.38c1.8,2.38,4.54,5.26,8.06,7.78,5.33,3.74,4.9-1.51,2.09-2.95-2.02-1.01-2.16.79-1.3,1.73-4.75-2.66-8.06-7.63-8.06-7.63,2.16.72,3.46,1.01,5.47,2.38-1.01-.5-2.52.07-1.15,1.51,1.94,2.02,6.48,1.08,1.94-2.52-2.16-1.73-4.32-2.09-7.06-3.1v2.81h0ZM21.93,62.28v-3.82c1.08,1.73,2.02,3.31,2.81,4.68-.94-.22-1.87-.5-2.81-.86ZM21.93,4.82v.58c-.07-.22-.07-.36,0-.58h0ZM21.93,58.46v3.82c-2.38-.79-4.54-1.87-5.98-3.89-3.38-4.68.14-4.54,1.94-2.52,1.3,1.44-.14,2.16-1.15,1.51,1.73,1.87,2.95,2.45,4.75,3.24,0,0-2.66-5.26-6.12-8.93.86,1.01.79,2.74-1.22,1.73-2.88-1.44-2.16-7.92,2.09-2.95,1.44,1.66,2.66,3.46,3.67,4.97.79,1.08,1.44,2.09,2.02,3.02h0ZM21.93,63.58v2.81c-1.87-2.3-2.88-4.1-2.88-4.1,1.08.58,2.02.94,2.88,1.3h0ZM11.71,47.3c1.73,1.94,3.67-1.44,2.59-3.74-1.01-1.94-2.45-.36-2.3,1.01-.14-.29-.22-.58-.29-.86v3.6h0ZM11.71,40.32v-2.38c.43-.29,1.08.14,1.37.79-.43-1.37-.86-2.23-1.37-3.17v-2.38c1.15,1.73,2.09,3.02,2.66,5.26,1.22,4.82-1.66,3.96-2.66,1.87h0ZM11.71,30.82c.72,1.3,1.58,2.52,2.45,3.74v-11.74c-.07-1.8-.22-2.88-.72-4.61-.5-1.87-1.15-2.81-1.73-3.1v4.82c.29-.36.43-.86.29-1.37.58,1.66.65,2.52.86,4.32v6.98c-.5-.72-.86-1.44-1.15-2.09v3.02h0ZM11.71,25.2v-3.02c.29.5.5,1.08.58,1.66.07.86-.22,1.3-.58,1.37h0ZM11.71,13.46v-4.46c.86-.65,2.09-.58,2.02,1.37-.07,1.22-1.01,2.52-2.02,3.1h0ZM11.71,6.77c.14-.5.36-1.01.58-1.44.65-.29,1.44-.58,2.23-.79,1.08-.29,1.51-.36,2.3-.5-1.3.5-2.16,2.88.43,2.74,3.02-.22,6.12-5.26-.65-4.39-1.44.22-3.17.65-4.9,1.3v3.1ZM11.71,3.67v3.1c-.07.29-.14.5-.22.79-.36,1.15-.36,1.51-.5,2.3.14-.36.43-.65.72-.86v4.46c-1.37.72-2.88.14-2.38-3.74.22-1.66.72-3.74,1.58-5.76.22-.07.5-.22.79-.29h0ZM11.71,15.12v4.82c-.43.5-1.22.58-1.8-.72-.86-2.09.36-4.82,1.8-4.1h0ZM11.71,22.18c-1.15-1.73-3.38-2.09-2.52,2.38.43,2.16,1.37,4.25,2.52,6.26v-3.02c-.5-1.08-.79-2.09-1.22-3.53.22.65.79,1.08,1.22.94v-3.02h0ZM11.71,33.19v2.38c-.36-.58-.72-1.15-1.22-1.87,0,0-.22,5.04,1.22,10.01v3.6c-.43-.5-.86-1.3-1.15-2.52-1.94-7.27-1.15-15.62-1.15-15.62.79,1.73,1.58,2.95,2.3,4.03h0ZM11.71,37.94c-.29.14-.43.58-.29,1.3,0,.36.14.72.29,1.08v-2.38Z"/>
      <path class="cls-3" d="M69.16,65.66c.07.43.43.72.86.72s.86-.36.86-.86c0-.22-.07-.36-.22-.58-.14-.07-.29-.22-.5-.22-.58-.22-1.37,0-1.8.79-.65,1.01,0,2.38,1.15,2.88,1.22.43,3.67-.14,3.89-2.66.22-1.73-.36-2.74-1.51-3.38-1.44-.79-4.39-.43-4.97,2.23l.14.07c1.37-1.73,2.95-1.73,3.96-1.22,1.37.72,1.29,2.45.72,3.24-.58.79-1.51,1.01-2.23.5-.36-.29-.58-.94-.36-1.51h0ZM14.8,65.66c-.07.43-.43.72-.86.72-.5,0-.86-.36-.86-.86,0-.22.07-.36.22-.58.14-.07.29-.22.5-.22.58-.22,1.37,0,1.8.79.58,1.01,0,2.38-1.15,2.88-1.22.43-3.67-.14-3.96-2.66-.14-1.73.43-2.74,1.58-3.38,1.37-.79,4.32-.43,4.97,2.23l-.14.07c-1.37-1.73-2.95-1.73-3.96-1.22-1.37.72-1.37,2.45-.72,3.24.58.79,1.51,1.01,2.16.5.43-.29.65-.94.43-1.51Z"/>
      <path class="cls-1" d="M45.98,67.82l-3.96-2.88-4.03,2.88,1.58-4.68-4.03-2.88h4.97l1.51-4.68,1.51,4.68h4.9l-3.96,2.88,1.51,4.68h0ZM45.19,20.02l-3.17-2.3-3.17,2.3,1.22-3.67-3.17-2.3h3.89l1.22-3.74,1.22,3.74h3.89l-3.17,2.3,1.22,3.67h0ZM65.42,40.46l-3.17-2.3-3.17,2.3,1.22-3.67-3.17-2.3h3.89l1.22-3.74,1.22,3.74h3.89l-3.17,2.3,1.22,3.67h0ZM24.81,40.46l-3.17-2.3-3.17,2.3,1.22-3.67-3.17-2.3h3.89l1.22-3.74,1.22,3.74h3.89l-3.17,2.3,1.22,3.67Z"/>
      <path class="cls-1" d="M28.19,27.5h1.01v22.68l11.16-.07c.21,0,.36,0,.43-.07.22-.07.58-.22.86-.58.14-.14.29-.29.36-.43.07.14.14.29.29.43.36.36.65.5.86.58.14.07.22.07.43.07l11.16.07v-22.68h1.01v23.33h-11.52c.07.94-.86.86-2.23.86-1.44,0-2.38.07-2.3-.86h-11.52v-23.33Z"/>
      <path class="cls-3" d="M53.25,47.38l.86,1.3v-22.68c-.14-.14-.5-.36-.79-.5h-.07v-.79c.07,0,.14.07.22.14.43.29,1.3.79,1.3.79v24.55h-1.51v-.72h.65l-.65-.86v-1.22ZM53.11,25.42c-.14-.14-.29-.22-.43-.43v21.53l.58.86v1.22l-1.08-1.66c-.36,0-.94.07-1.44,0-.94,0-2.23-.14-3.38-.72-.07,0-.14,0-.22-.07v-.72c.14.07.22.07.29.14,2.02.94,4.61.72,4.61.72v-21.96s-2.52.22-4.61-.65c-.07-.07-.14-.07-.29-.14v-.72c.14.07.29.14.43.22,1.08.5,2.3.65,3.24.65.86.07,1.73-.07,1.8-.07.07.22.14.65.65,1.08v.79l-.14-.07h0ZM53.25,49.46v.72l-6.12-.07v-.65h6.12ZM47.13,22.82v.72c-.72-.43-1.37-1.08-3.02-.94-1.3.07-1.8,1.01-1.8,1.01v21.6s.58-.58,1.87-.65c1.58-.14,2.23.43,2.95.86v.72c-.36-.14-.72-.43-1.15-.65-.43-.22-1.01-.36-1.94-.29-.65.07-1.08.29-1.37.58-.14.07-.22.22-.36.43v1.87c0,.07,0,.14.07.22,0,.14.14.36.43.65.29.36.58.43.72.5h3.6v.65h-3.53c-.22,0-.29,0-.43-.07-.22-.07-.5-.22-.86-.58-.14-.14-.22-.29-.29-.43-.07.14-.22.29-.36.43-.29.36-.65.5-.86.58-.07.07-.22.07-.29.07h-3.67v-.65h3.6c.29-.07.5-.22.79-.5.29-.29.36-.5.43-.65v-2.09c-.14-.22-.22-.36-.36-.43-.22-.29-.72-.5-1.37-.58-.94-.07-1.51.07-1.94.29-.43.22-.79.5-1.15.65v-.72c.72-.43,1.44-1.01,3.02-.86,1.3.07,1.8.65,1.8.65v-21.6s-.43-.94-1.73-1.01c-1.73-.14-2.38.5-3.1.94v-.72c.29-.14.58-.36.86-.5.58-.29,1.29-.43,2.3-.36.86.07,1.44.43,1.8.72.07.07.14.14.22.22.07-.07.14-.14.22-.22.36-.29.94-.65,1.73-.72,1.08-.07,1.73.07,2.3.36.36.14.58.36.86.5ZM36.84,22.82v.72c-.07.07-.22.07-.29.14-2.02.86-4.54.65-4.54.65v21.96s2.59.22,4.54-.72c.07-.07.22-.07.29-.14v.72q-.07.07-.14.07c-1.22.58-2.45.72-3.46.72-.5.07-1.01,0-1.37,0l-1.15,1.66v-1.22l.65-.86v-21.53c-.22.22-.36.29-.5.43q-.07,0-.14.07v-.79c.5-.43.58-.86.65-1.08.07,0,.94.14,1.8.07,1.01,0,2.16-.14,3.24-.65.14-.07.29-.14.43-.22h0ZM36.84,49.46v.65h-6.12v-.65h6.12ZM30.72,24.7v.79c-.36.22-.72.36-.86.5v22.68l.86-1.3v1.22l-.65.86h.65v.65l-1.51.07v-24.55s.86-.5,1.29-.79c.07-.07.14-.14.22-.14Z"/>
      <path class="cls-1" d="M53.25,49.46v-.86l.65.86h-.65ZM53.25,47.38l.86,1.3v-22.68c-.14-.14-.43-.29-.86-.5v21.89ZM30.72,49.46h9.72c.29-.07.5-.22.79-.5.29-.29.36-.5.43-.65v-2.09c-.14-.22-.22-.36-.36-.43-.22-.29-.72-.5-1.37-.58-.94-.07-1.51.07-1.94.29-.5.22-.86.58-1.3.72-1.22.58-2.45.72-3.46.72-.5.07-1.01,0-1.37,0l-1.15,1.66v.86h0ZM53.25,25.49v21.89l-.58-.86v-21.53c.14.22.29.29.43.43.07,0,.14,0,.14.07h0ZM53.25,48.6l-1.08-1.66c-.36,0-.94.07-1.44,0-.94,0-2.23-.14-3.38-.72-.5-.14-.86-.5-1.37-.72-.43-.22-1.01-.36-1.94-.29-.65.07-1.08.29-1.37.58-.14.07-.22.22-.36.43l.07,2.09c0,.14.14.36.43.65.29.29.5.43.72.5h9.72v-.86h0ZM30.72,47.38v-21.89q.07-.07.14-.07c.14-.14.29-.22.5-.43v21.53l-.65.86ZM30.07,49.46h.65v-.86l-.65.86h0ZM30.72,25.49v21.89l-.86,1.3v-22.68c.14-.14.5-.29.86-.5Z"/>
      <path class="cls-1" d="M42.31,45.22v-21.6s.5-.94,1.8-1.01c1.87-.14,2.45.72,3.31,1.08,2.09.86,4.61.65,4.61.65v21.96s-2.59.22-4.61-.72c-.86-.43-1.51-1.15-3.24-1.01-1.3.07-1.87.65-1.87.65h0ZM41.66,45.22v-21.6s-.43-.94-1.73-1.01c-1.94-.14-2.52.72-3.38,1.08-2.02.86-4.54.65-4.54.65v21.96s2.59.22,4.54-.72c.86-.43,1.51-1.15,3.31-1.01,1.3.07,1.8.65,1.8.65Z"/>
      <path class="cls-3" d="M51.09,43.85s-.94.29-2.59-.22c-1.29-.36-2.02-1.08-3.17-1.15-1.08-.07-2.16.14-2.16.14,0,0,.94-.72,2.02-.72,1.44,0,2.3.79,3.53,1.22,1.51.58,2.38.72,2.38.72h0ZM51.09,41.76s-.86-.22-2.38-.72c-1.22-.5-2.09-1.3-3.53-1.3-1.08.07-2.02.79-2.02.79,0,0,1.08-.29,2.16-.22,1.15.07,1.87.86,3.17,1.22,1.66.5,2.59.22,2.59.22h0ZM51.09,39.6s-.94.29-2.59-.22c-1.29-.36-2.02-1.08-3.17-1.15-1.08-.07-2.16.14-2.16.14,0,0,.94-.72,2.02-.72,1.44,0,2.3.79,3.53,1.22,1.51.58,2.38.72,2.38.72h0ZM51.09,37.51s-.86-.22-2.38-.72c-1.22-.5-2.09-1.3-3.53-1.22-1.08,0-2.02.72-2.02.72,0,0,1.08-.29,2.16-.22,1.15.07,1.87.86,3.17,1.22,1.66.5,2.59.22,2.59.22h0ZM51.09,35.35s-.94.29-2.59-.14c-1.29-.43-2.02-1.15-3.17-1.22-1.08-.07-2.16.22-2.16.22,0,0,.94-.79,2.02-.79,1.44,0,2.3.79,3.53,1.22,1.51.58,2.38.72,2.38.72h0ZM51.09,33.26s-.86-.22-2.38-.72c-1.22-.5-2.09-1.22-3.53-1.22-1.08,0-2.02.72-2.02.72,0,0,1.08-.29,2.16-.22,1.15.14,1.87.86,3.17,1.22,1.66.5,2.59.22,2.59.22h0ZM51.09,31.1s-.94.29-2.59-.14c-1.29-.43-2.02-1.15-3.17-1.22-1.08-.07-2.16.22-2.16.22,0,0,.94-.79,2.02-.79,1.44,0,2.3.79,3.53,1.22,1.51.58,2.38.72,2.38.72h0ZM51.09,29.02s-.86-.14-2.38-.72c-1.22-.43-2.09-1.22-3.53-1.22-1.08,0-2.02.72-2.02.72,0,0,1.08-.29,2.16-.22,1.15.14,1.87.86,3.17,1.22,1.66.5,2.59.22,2.59.22h0ZM51.09,26.86s-.94.29-2.59-.14c-1.29-.43-2.02-1.15-3.17-1.22-1.08-.07-2.16.22-2.16.22,0,0,.94-.79,2.02-.79,1.44,0,2.3.79,3.53,1.22,1.51.58,2.38.72,2.38.72h0ZM32.88,43.85s1.01.29,2.59-.22c1.37-.36,2.09-1.08,3.17-1.15,1.08-.07,2.16.14,2.16.14,0,0-.94-.72-1.94-.72-1.51,0-2.3.79-3.6,1.22-1.51.58-2.38.72-2.38.72h0ZM32.88,41.76s.86-.22,2.38-.72c1.3-.5,2.09-1.3,3.6-1.3,1.01.07,1.94.79,1.94.79,0,0-1.08-.29-2.16-.22-1.08.07-1.8.86-3.17,1.22-1.58.5-2.59.22-2.59.22h0ZM32.88,39.6s1.01.29,2.59-.22c1.37-.36,2.09-1.08,3.17-1.15,1.08-.07,2.16.14,2.16.14,0,0-.94-.72-1.94-.72-1.51,0-2.3.79-3.6,1.22-1.51.58-2.38.72-2.38.72h0ZM32.88,37.51s.86-.22,2.38-.72c1.3-.5,2.09-1.3,3.6-1.22,1.01,0,1.94.72,1.94.72,0,0-1.08-.29-2.16-.22-1.08.07-1.8.86-3.17,1.22-1.58.5-2.59.22-2.59.22h0ZM32.88,35.35s1.01.29,2.59-.14c1.37-.43,2.09-1.15,3.17-1.22,1.08-.07,2.16.22,2.16.22,0,0-.94-.79-1.94-.79-1.51,0-2.3.79-3.6,1.22-1.51.58-2.38.72-2.38.72h0ZM32.88,33.26s.86-.22,2.38-.72c1.3-.5,2.09-1.22,3.6-1.22,1.01,0,1.94.72,1.94.72,0,0-1.08-.29-2.16-.22-1.08.14-1.8.86-3.17,1.22-1.58.5-2.59.22-2.59.22h0ZM32.88,31.1s1.01.29,2.59-.14c1.37-.43,2.09-1.15,3.17-1.22,1.08-.07,2.16.22,2.16.22,0,0-.94-.79-1.94-.79-1.51,0-2.3.79-3.6,1.22-1.51.58-2.38.72-2.38.72h0ZM32.88,29.02s.86-.14,2.38-.72c1.3-.43,2.09-1.22,3.6-1.22,1.01,0,1.94.72,1.94.72,0,0-1.08-.29-2.16-.22-1.08.14-1.8.86-3.17,1.22-1.58.5-2.59.22-2.59.22h0ZM32.88,26.86s1.01.29,2.59-.14c1.37-.43,2.09-1.15,3.17-1.22,1.08-.07,2.16.22,2.16.22,0,0-.94-.79-1.94-.79-1.51,0-2.3.79-3.6,1.22-1.51.58-2.38.72-2.38.72Z"/>
      <path class="cls-3" d="M110.06,9c0-.14-.07-.22-.22-.22h-.94c-.07,0-.5.07-1.22.07h-2.66l-2.3-.07h-2.09c-.22,0-.29,0-.29.07-.07.07-.07.14-.07.58l-.14,1.51c0,.07-.07.22-.07.29h0c0,.14.14.14.43.14.07,0,.14,0,.14-.07.14-.72.5-1.22.94-1.44.43-.14.86-.22,2.45-.22h.22v8.21c0,.94-.07,1.22-.29,1.37-.22.07-.65.22-1.15.22q-.36.07-.36.22v.14c0,.14,0,.22.14.22h.22c.14,0,.43,0,.79-.07h3.31c.29,0,.5.07.58.07h.22c.22,0,.29-.07.29-.22v-.22c0-.07-.07-.07-.5-.14-.65-.07-.86-.07-1.08-.22-.36-.14-.43-.36-.43-1.37v-8.21h2.16c.21.07.43.07.65.22.36.14.5.58.65,1.22q0,.29.29.29t.29-.22v-.65l.07-1.08v-.43Z"/>
      <path class="cls-3" d="M126.26,19.8v-.07c0-.22,0-.29-.36-.29h-.36v-.07c-.72-.07-.86-.22-.86-1.51v-6.91c0-1.3.07-1.44.79-1.51h0c.22-.07.36-.07.36-.07.36,0,.36-.07.36-.29v-.07c0-.14,0-.22-.14-.22h-.86l-.58.07h-1.15c-.07,0-.43-.07-1.08-.07h-.72c-.22,0-.22.07-.22.22v.07c0,.22.07.29.36.29.07,0,.14,0,.36.07h0c.72.07.79.22.79,1.51v2.74h-5.62v-2.74c0-1.3.07-1.44.79-1.51h0c.22-.07.36-.07.36-.07.36,0,.36-.07.36-.29v-.07c0-.14,0-.22-.22-.22h-.72c-.65.07-1.15.07-1.51.07h-.94l-.43-.07h-.72c-.22,0-.22.07-.22.22v.07c0,.22,0,.29.36.29.07,0,.14,0,.36.07h0c.72.07.79.22.79,1.51v6.98c0,.65-.07.94-.14,1.15-.07.14-.14.22-.65.36h-.36c-.36,0-.36.07-.36.29v.07c0,.14,0,.22.22.22h.43l.36-.07h1.51c.43,0,1.22.07,1.94.07h.29c.14,0,.14-.07.14-.29v-.07c0-.14-.07-.22-.36-.22h-.43c-.79-.14-.86-.29-.86-1.58v-3.31h5.62v3.38c0,1.3-.07,1.37-.79,1.51h-.5c-.22.07-.29.07-.29.29h0c0,.22.07.29.21.29h.5l.43-.07h2.38l.65.07h.58c.14,0,.14-.07.14-.22Z"/>
      <path class="cls-3" d="M139.29,17.35c0-.14-.14-.22-.36-.22-.07,0-.14,0-.22.22-.36.86-.65,1.15-1.22,1.44-.65.22-1.15.29-2.23.29-1.3,0-1.51-.14-1.51-.94v-3.6h1.22c1.51,0,1.8.07,1.94.29.07.14.14.43.22,1.08.07.07.07.14.22.14.29,0,.36-.07.36-.22v-.29c-.07-.5-.07-.94-.07-1.51,0-.36.07-.79.07-1.08v-.43c0-.22-.07-.22-.36-.22-.14,0-.22,0-.22.29-.07.86-.29,1.08-1.15,1.15h-2.23v-4.1h1.3c1.08,0,1.8.07,2.16.22.36.22.65.65.86,1.22l.07.22c0,.07.07.07.07.07.29,0,.43-.07.43-.22v-.22c-.07-.22-.14-.58-.14-1.22-.07-.22-.07-.36-.07-.43,0-.43-.07-.5-.43-.5h-1.44c-.65,0-1.22.07-1.73.07h-2.66c-.58,0-1.01,0-1.15-.07h-.36c-.14,0-.14.07-.14.22h0v.14c0,.14.07.22.14.22h.65c.14.07.29.14.43.22.22.14.29.43.29,1.3v7.34c0,.58,0,.65-.14.86,0,.07-.07.14-.14.14-.22.14-.43.22-1.08.29-.07,0-.14,0-.14.14v.14c0,.14.07.22.22.22h.5c.29,0,.58-.07,1.01-.07h5.26c.43,0,.65.07.72.07h.36c.22,0,.29-.07.29-.36,0-.07.07-.14.07-.36l.14-.79c.07-.43.14-.79.22-1.01v-.14Z"/>
      <path class="cls-3" d="M163.99,9.07h0v-.07c0-.14,0-.22-.14-.22h-.79c-.72.07-1.15.07-1.44.07l-.94-.07h-.86c-.14,0-.14.07-.22.22v.14c0,.14.07.22.5.22.65.07,1.01.22,1.15.43.07.22.07.58.14,1.3v4.25c0,1.37-.07,2.02-.43,2.59-.5.86-1.44,1.3-2.74,1.3s-2.45-.5-2.81-1.3c-.29-.58-.43-1.22-.43-2.74v-4.25c0-.07,0-.22.07-.43v-.43c0-.22.14-.36.22-.5.22-.07.58-.14,1.37-.22.14-.07.22-.07.22-.29v-.14c0-.07-.07-.14-.22-.14h-1.22l-1.22.07-1.44-.07h-.79c-.14,0-.14.07-.14.22,0,.29,0,.36.22.36h.29c.5.07.79.22.86.58.07.22.07.29.07,1.01v5.54c0,.86.14,1.58.43,2.09.22.43.58.79,1.15,1.08.72.43,1.66.65,2.81.65,2.02,0,3.53-.72,4.18-1.87.5-.86.58-1.3.58-3.46v-3.89c0-.94.14-1.37.36-1.51.14-.14.5-.22,1.01-.22q.22-.07.22-.29Z"/>
      <path class="cls-3" d="M180.26,9c0-.14-.07-.22-.29-.22h-.14c-.14,0-.29.07-.5.07h-1.22c-.36,0-.72-.07-1.3-.07h-.72c-.22,0-.29.07-.29.29s.07.29.29.29c.14,0,.5.07.79.14.36,0,.58.14.65.36.07.14.14.43.14,1.08l.14,6.26-6.55-8.42-.29.07h-1.44l-.86-.07h-.29c-.22,0-.22.07-.22.36,0,.14.07.22.29.22.65.07,1.01.22,1.37.65l-.29,7.34v.65c0,.72-.07,1.01-.29,1.15-.14.14-.29.14-.65.22l-.29.07q-.36.07-.36.29c0,.22.07.29.21.29q.07,0,.22-.07h2.88c.43.07.58.07.72.07.36,0,.43-.07.43-.22,0-.29-.07-.29-.29-.29-.22-.07-.58-.14-.86-.22-.29-.07-.5-.22-.58-.43-.07-.14-.07-.58-.07-1.15v-.29l.07-6.48,6.98,8.93c.14.22.22.29.29.36h.65c.07-.07.07-.14.07-.43v-8.78c0-.86.14-1.22.36-1.44.14-.07.36-.14.94-.22.22,0,.29-.07.29-.36Z"/>
      <path class="cls-3" d="M189.4,19.73h0v-.14c0-.07-.07-.07-.22-.07l-.43-.07c-.79-.14-.94-.29-.94-1.01v-8.42c.07-.22.14-.36.22-.43.22-.14.58-.22,1.08-.29q.21,0,.21-.22v-.07c0-.14-.07-.22-.21-.22h-.29l-.72.07h-1.15l-1.37-.07h-.86c-.14,0-.22.07-.22.14v.14q0,.22.14.29c.5,0,.94.07,1.08.22.22.14.29.36.29,1.37v6.98c0,.86-.07,1.15-.29,1.3-.22.14-.36.22-1.01.22q-.22.07-.22.29v.07c0,.14.07.22.22.22h.22c.14,0,.36-.07.5-.07h2.95c.22.07.43.07.5.07h.29c.14,0,.22-.07.22-.29Z"/>
      <path class="cls-3" d="M205.46,9.07c0-.22,0-.29-.22-.29h-.14c-.36.07-.94.07-1.3.07h-1.37c-.29,0-.5-.07-.65-.07h-.22c-.14,0-.14.07-.14.29s0,.29.14.29h.29q.58.07.79.22c.07.07.14.14.14.29s-.07.36-.14.58c-.07.29-.14.5-.22.58l-.14.58-2.38,6.34-2.66-6.77-.29-.65c-.07-.29-.14-.5-.14-.65,0-.29.22-.36,1.01-.5h.29c.14,0,.14-.07.14-.29s0-.29-.14-.29h-.72c-.79,0-1.3.07-1.44.07h-1.37c-.58,0-.79,0-.86-.07h-.29c-.14,0-.14.07-.14.29s0,.29.22.29c.5.07.86.14,1.01.29.22.14.22.22.72,1.3l.36.79,3.46,8.14.14.29q.07.14.29.14h.29c.07,0,.07-.07.14-.14v-.14l3.46-8.35c.14-.29.22-.5.22-.58.14-.29.29-.58.43-.94.14-.22.22-.36.29-.5.14-.14.36-.22.79-.29.22,0,.29-.07.36-.07v-.22Z"/>
      <path class="cls-3" d="M218.13,17.35c0-.14-.14-.22-.36-.22-.07,0-.14,0-.22.22-.36.86-.65,1.15-1.22,1.44-.65.22-1.15.29-2.23.29-1.3,0-1.51-.14-1.51-.94v-3.6h1.22c1.51,0,1.8.07,1.94.29.07.14.14.43.22,1.08.07.07.07.14.22.14.29,0,.36-.07.36-.22v-.29c-.07-.5-.07-.94-.07-1.51,0-.36.07-.79.07-1.08v-.43c0-.22-.07-.22-.36-.22-.14,0-.22,0-.22.29-.07.86-.29,1.08-1.15,1.15h-2.23v-4.1h1.3c1.08,0,1.8.07,2.16.22.36.22.65.65.86,1.22l.07.22c0,.07.07.07.07.07.29,0,.43-.07.43-.22v-.22c-.07-.22-.14-.58-.14-1.22-.07-.22-.07-.36-.07-.43,0-.43-.07-.5-.43-.5h-1.44c-.65,0-1.22.07-1.73.07h-2.66c-.58,0-1.01,0-1.15-.07h-.36c-.14,0-.14.07-.14.22h0v.14c0,.14.07.22.14.22h.65c.14.07.29.14.43.22.22.14.29.43.29,1.3v7.34c0,.58,0,.65-.14.86,0,.07-.07.14-.14.14-.22.14-.43.22-1.08.29-.07,0-.14,0-.14.14v.14c0,.14.07.22.22.22h.5c.29,0,.58-.07,1.01-.07h5.26c.43,0,.65.07.72.07h.36c.22,0,.29-.07.29-.36,0-.07.07-.14.07-.36l.14-.79c.07-.43.14-.79.22-1.01v-.14Z"/>
      <path class="cls-3" d="M233.11,19.73c0-.14-.07-.22-.29-.22-.65,0-1.37-.43-1.87-1.08-.5-.65-1.08-1.51-1.66-2.59-.58-.94-.72-1.15-1.15-1.73,1.44-.5,2.23-1.51,2.23-2.81,0-.94-.43-1.8-1.15-2.23-.58-.29-1.22-.5-2.16-.5v.86c1.01.29,1.51,1.08,1.51,2.16s-.5,1.87-1.51,2.16v1.66c.14.22.36.58.58,1.01.86,1.73,1.37,2.45,2.02,3.1.5.43,1.15.65,1.94.65.5,0,1.22-.07,1.37-.14.07-.07.14-.14.14-.29h0ZM227.06,20.02v-.5c.07,0,.07.07.07.14v.22q0,.07-.07.14ZM227.06,8.57c-.29-.07-.58-.07-.86-.07-1.01,0-2.45.14-3.67.29q-.29,0-.36.07s-.07.07-.07.22c0,.22.07.29.22.29h.36c.5,0,.86.14.94.36.14.22.14.29.14.86v8.14c-.07.14-.07.29-.14.36,0,.07-.07.14-.14.14-.14.14-.43.22-.79.22l-.29.07q-.14,0-.14.22c0,.22,0,.29.14.29h.07l.29-.07h3.38l.58.07h.36v-.5q-.07-.07-.14-.07h-.36c-.5,0-.79-.14-.94-.36-.07-.14-.07-.29-.14-.79v-3.6h.58c.43,0,.65.14,1.01.72v-1.66c-.36.14-.79.22-1.22.22h-.36v-4.68h.36c.43,0,.86.07,1.22.14v-.86Z"/>
      <path class="cls-3" d="M244.55,16.85c0-.79-.29-1.51-.86-2.09-.43-.43-.86-.72-2.02-1.37-1.3-.65-1.66-.86-2.02-1.3-.29-.29-.43-.72-.43-1.08,0-.94.79-1.66,2.02-1.66,1.15,0,1.87.58,2.3,1.8,0,.22.07.22.14.22.29,0,.43-.07.43-.14v-.22l-.14-1.37v-.14c-.07-.29-.07-.36-.29-.5-.36-.29-1.51-.5-2.38-.5-2.16,0-3.67,1.22-3.67,3.02,0,.86.43,1.73,1.15,2.23.43.36,1.01.72,1.66,1.08,1.22.65,1.66.94,2.09,1.37.29.29.43.72.43,1.15,0,1.15-.94,2.02-2.3,2.02-1.15,0-2.09-.65-2.66-1.87l-.14-.36q-.07-.14-.14-.14c-.29,0-.43.07-.43.22v.36l.29,1.58q.07.07.07.14c.07.36.07.43.29.5.5.29,1.58.5,2.45.5,2.52,0,4.18-1.37,4.18-3.46Z"/>
      <path class="cls-3" d="M253.91,19.73h0v-.14c0-.07-.07-.07-.21-.07l-.43-.07c-.79-.14-.94-.29-.94-1.01v-8.42c.07-.22.14-.36.22-.43.22-.14.58-.22,1.08-.29q.22,0,.22-.22v-.07c0-.14-.07-.22-.22-.22h-.29l-.72.07h-1.15l-1.37-.07h-.86c-.14,0-.22.07-.22.14v.14q0,.22.14.29c.5,0,.94.07,1.08.22.22.14.29.36.29,1.37v6.98c0,.86-.07,1.15-.29,1.3-.14.14-.36.22-1.01.22q-.22.07-.22.29v.07c0,.14.07.22.22.22h.22c.14,0,.36-.07.5-.07h2.95c.22.07.43.07.58.07h.22c.21,0,.21-.07.21-.29Z"/>
      <path class="cls-3" d="M267.74,9c.07-.14-.07-.22-.22-.22h-.86c-.14,0-.58.07-1.22.07h-2.66l-2.38-.07h-2.09q-.22,0-.29.07c0,.07,0,.14-.07.58l-.14,1.51v.29h0c0,.14.14.14.36.14q.14,0,.14-.07c.14-.72.5-1.22,1.01-1.44.36-.14.86-.22,2.38-.22h.22v8.21c0,.94,0,1.22-.29,1.37-.14.07-.58.22-1.15.22-.29.07-.36.07-.36.22v.14c0,.14.07.22.22.22h.22c.14,0,.43,0,.79-.07h3.24c.36,0,.5.07.58.07h.22c.29,0,.29-.07.29-.22v-.22c0-.07-.07-.07-.43-.14-.72-.07-.94-.07-1.15-.22-.29-.14-.36-.36-.36-1.37v-8.21h2.16c.22.07.43.07.58.22.36.14.58.58.65,1.22q.07.29.29.29t.29-.22v-.65l.07-1.08v-.43Z"/>
      <path class="cls-3" d="M282.86,9.07c0-.22,0-.29-.14-.29h-.86c-.36,0-.79.07-1.08.07s-.5-.07-1.15-.07h-.79c-.14,0-.22.07-.22.22,0,.22,0,.29.07.29,0,0,.07,0,.14.07h.29c.58,0,.86.14.86.43,0,.14-.22.58-.5,1.08l-1.87,3.31-2.09-3.46c-.29-.43-.43-.72-.43-.86,0-.29.29-.43.79-.5h.36c.22,0,.29-.07.29-.29s-.07-.29-.22-.29h-.36l-2.23.07h-1.44c-.22-.07-.36-.07-.43-.07h-.29c-.14,0-.14.07-.14.29s0,.22.14.29h.22c.65.07.94.29,1.37,1.08.07.07.14.22.29.36l2.81,4.39v2.74c0,.94-.07,1.15-.29,1.3-.22.14-.43.22-1.15.22q-.36.07-.36.22v.14c0,.14,0,.22.22.22h0c.14,0,.22-.07.29-.07h4.46l.36.07h0c.14,0,.14-.07.14-.22v-.14q0-.14-.43-.22c-.94-.07-1.3-.14-1.37-.36-.07-.14-.14-.22-.14-.72v-3.17l2.81-4.39c.58-.94.72-1.08,1.01-1.22.14-.14.5-.22.72-.22.29-.07.36-.07.36-.29Z"/>
      <path class="cls-3" d="M307.12,13.9c0-3.17-2.3-5.4-5.47-5.4h-.36v.86c2.3.07,4.03,2.3,4.03,5.33,0,2.74-1.58,4.68-3.96,4.68h-.07v.94c3.38-.07,5.69-2.52,5.83-6.12v-.29ZM301.29,8.5c-3.38.14-5.83,2.74-5.83,6.19s2.38,5.62,5.62,5.62h.22v-.94c-2.3,0-4.03-2.3-4.03-5.33,0-2.81,1.58-4.68,3.96-4.68h.07v-.86Z"/>
      <path class="cls-3" d="M319.58,11.16h0v-.22l-.21-1.58v-.29c-.07-.22-.07-.29-.29-.29h-2.23l-1.8.07h-1.87c-.5,0-.79-.07-.94-.07h-.43c-.14,0-.22.07-.22.22,0,.22.07.29.07.29q.07.07.36.07c.94,0,1.08.22,1.08,1.58v6.98c0,.5,0,1.01-.07,1.15-.07.22-.43.36-1.01.36-.36.07-.43.07-.43.29s.07.29.22.29h.22l.65-.07h2.95c.43,0,.79.07,1.08.07h.29c.14,0,.14-.07.14-.22v-.14c0-.14,0-.22-.36-.22-.86-.07-1.37-.14-1.58-.29-.22-.14-.29-.36-.29-.94v-3.67h2.52c.14.07.29.07.43.14.07.07.14.07.22.14.07.22.14.5.22.79q0,.43.21.43t.29-.22h0v-3.1c.07-.14.07-.22.07-.22,0-.22-.07-.22-.29-.22s-.29.07-.29.22c-.07.65-.14.94-.43,1.01-.36.22-.72.22-2.23.22h-.72v-4.1h.86c1.3,0,1.94.07,2.38.22.29.14.58.5.72,1.01l.14.36c.07.07.07.14.22.14.22,0,.36-.07.36-.22Z"/>
      <g>
        <path class="cls-3" d="M256.36,83.81c0,2.02-1.51,4.39-3.89,4.97v-.94c1.15-.86,2.38-2.88,2.38-4.75,0-1.22-.58-1.8-1.3-1.8-.29,0-.72.14-1.08.43v-.94c.36-.07.72-.07,1.08-.07,1.44,0,2.81,1.01,2.81,3.1ZM252.47,88.78c-.36.07-.72.14-1.08.14-1.44,0-2.81-1.08-2.81-3.1s1.51-4.46,3.89-5.04v.94c-1.15.94-2.38,2.88-2.38,4.75,0,1.3.58,1.87,1.3,1.87.36,0,.72-.22,1.08-.5v.94Z"/>
        <g>
          <path class="cls-3" d="M131.59,80.28c-.14.36-4.03,5.98-4.03,5.98-.43.65-1.44,2.23-1.66,2.59l-.94.07c.07-3.89.65-9.86.65-11.09,0-1.3-.22-1.37-1.51-1.37v-.65c.58.07,1.66.07,2.74.07.72,0,1.44,0,2.16-.07v.58c-1.37.14-1.58.43-1.73,1.58l-.43,7.49v.43l.43-.65c.36-.43.79-1.08,1.3-1.8,1.01-1.44,2.23-3.17,3.1-4.32l.07-1.87c.07-.5-.29-.79-1.08-.79v-.65c.29.07,1.22.07,2.16.07,1.01,0,1.51,0,2.09-.07v.58c-1.15.07-1.44.29-1.51,1.94l-.36,5.18c-.07,1.08-.22,2.52-.22,2.74.07.14,5.76-7.99,5.76-9.22,0-.43-.36-.65-.94-.58v-.65c.36.07,1.08.07,1.73.07.79,0,1.44,0,1.8-.07v.58c-.86.07-1.22.36-1.87,1.51-2.81,4.82-6.26,9.43-7.42,10.94l-.94.07.65-8.64Z"/>
          <path class="cls-3" d="M142.39,83.88v.07h0v-.07c0-.07.07-.22.14-.36.21-.5.5-1.22.86-2.23,1.15-2.95,1.94-5.26,1.94-5.4,0-.22-.14-.29-.36-.29h-2.09c-.14,0-.22,0-.29.07-.07,0-.14.07-.14.22,0,.22.22.29.65.36.36.07.43.14.43.29,0,.22-.22.86-.5,1.73-.22.58-.43,1.22-.65,1.94v3.74-.07c.07-.07.14-.22.29-.36.22-.29.58-.72.94-1.15.72-.79,1.66-1.66,2.52-1.66.79,0,1.22.5,1.22,1.51,0,.79-.43,2.02-.79,3.02-.22.5-.43.94-.58,1.37-.14.36-.22.58-.22.65s0,.14.22.14c.07,0,.36-.22.65-.5s.58-.58.72-.72l.43.36c-.86,1.01-2.09,2.38-3.24,2.38-.5,0-.72-.29-.72-.65,0-.29.14-.72.36-1.15.22-.5.43-1.01.65-1.58.5-1.15,1.01-2.23,1.01-2.81,0-.36-.07-.5-.43-.5-.72,0-2.02,1.15-3.02,2.81v-1.15ZM142.39,83.95c-.07.07-.07.14-.07.14l.07-.07v1.01c-.65,1.01-1.3,2.23-1.66,3.38-.07.29-.29.36-.72.36-.5,0-.65-.07-.65-.36,0-.22.43-1.37,1.01-2.81.58-1.51,1.22-3.17,1.66-4.39.07-.36.22-.65.36-1.01v3.74l-.07.07.07-.07h0Z"/>
          <path class="cls-3" d="M153.55,85.82c-.07.07-.14.07-.22.14-.07.14-.21.36-.36.58-.22.36-.43.58-.65.86v-1.01c1.15-1.37,2.23-3.38,2.23-4.03,0-.5-.22-.94-.86-.94-.43,0-.86.22-1.37.58v-.79c.58-.22,1.08-.36,1.73-.36.29,0,.5,0,.65.07l.29.07h.14q.07,0,.14-.07s.07-.07.14-.14v-.07l.07-.07c.07-.07.14-.14.22-.14s.29.07.43.14c.14.07.36.22.36.43,0,.14-.14.58-.36,1.08-.22.58-.5,1.3-.79,2.02-.5,1.44-1.08,2.88-1.08,3.24,0,.14.07.22.07.22h.07c.07,0,.22-.07.36-.22.14-.14.36-.29.5-.5.14-.14.29-.36.43-.5.07-.07.14-.14.22-.22.07,0,.07-.07.14-.07.22,0,.29.14.29.29s-1.58,2.52-2.88,2.52c-.43,0-.72-.29-.72-.79,0-.43.22-1.01.43-1.44.07-.22.14-.43.22-.58l.07-.14.07-.14ZM152.32,87.41c-.94,1.15-1.73,1.51-2.37,1.51-.72,0-1.3-.58-1.3-1.66,0-1.3,1.22-4.82,3.67-6.05v.79c-1.22,1.08-2.16,3.24-2.16,4.9,0,.58.14.72.43.72.5,0,1.15-.5,1.73-1.22v1.01Z"/>
          <path class="cls-3" d="M158.08,88.78c-.22,0-.29-.14-.29-.36,0-.07.14-.43.29-.94.14-.5.43-1.15.65-1.8.43-1.37.94-2.74.94-3.31,0-.29-.07-.36-.22-.36-.07,0-.29.14-.58.43-.22.22-.43.5-.58.72-.07.07-.14.14-.22.22l-.07.07h-.07c-.22,0-.22-.14-.22-.22,0-.43,1.8-2.52,2.66-2.52.43,0,.65.14.65.65,0,.22-.14.94-.36,1.66l-.22.94c-.07.22-.07.43-.07.43.07-.07.07-.14.14-.22.29-.5.79-1.3,1.29-2.09.5-.72,1.15-1.37,1.66-1.37s.72.43.72,1.01c0,.65-.22,1.01-.65,1.01-.36,0-.5-.22-.58-.43l-.07-.14-.07-.07c0-.07-.07-.07-.14-.07-.29,0-1.22,1.08-3.02,5.18l-.58,1.22c0,.07-.07.14-.14.22,0,.07-.07.14-.22.14h-.65Z"/>
          <path class="cls-3" d="M167.95,87.26q0-.07.07-.07c.22-.14.43-.29.58-.43l.14-.07c.07-.07.14-.07.14-.07.14,0,.22.07.22.22s-.43.72-1.15,1.22v-.79h0ZM167.95,80.93c.36-.14.79-.22,1.15-.22,1.01,0,1.66.65,1.66,1.3,0,1.3-1.58,1.87-2.81,2.09v-.79c.94-.22,1.51-.72,1.51-1.37,0-.36-.29-.65-.65-.65-.29,0-.58.14-.86.36v-.72ZM166.51,87.77c.5,0,1.01-.29,1.44-.5v.79c-.65.43-1.44.86-2.23.86-1.3,0-2.16-.86-2.16-2.23,0-2.45,2.3-5.04,4.39-5.76v.72c-.65.58-1.22,1.44-1.51,1.87.58,0,1.08-.07,1.51-.22v.79c-.36.07-.72.07-1.01.07h-.86c-.36.58-.79,1.3-.79,2.3,0,.79.43,1.3,1.22,1.3Z"/>
        </g>
        <g>
          <path class="cls-3" d="M185.15,80.28c-.14.36-3.96,5.98-3.96,5.98-.43.65-1.44,2.23-1.66,2.59l-.94.07c.07-3.89.58-9.86.58-11.09,0-1.3-.14-1.37-1.44-1.37v-.65c.58.07,1.66.07,2.74.07.72,0,1.44,0,2.16-.07v.58c-1.37.14-1.66.43-1.73,1.58l-.43,7.49v.43l.43-.65c.36-.43.79-1.08,1.3-1.8,1.01-1.44,2.23-3.17,3.1-4.32l.07-1.87c.07-.5-.29-.79-1.08-.79v-.65c.29.07,1.22.07,2.16.07,1.01,0,1.51,0,2.09-.07v.58c-1.15.07-1.44.29-1.51,1.94l-.36,5.18c-.07,1.08-.22,2.52-.22,2.74.07.14,5.76-7.99,5.76-9.22,0-.43-.36-.65-.94-.58v-.65c.36.07,1.08.07,1.73.07.79,0,1.44,0,1.8-.07v.58c-.86.07-1.22.36-1.87,1.51-2.81,4.82-6.26,9.43-7.42,10.94l-.94.07.58-8.64Z"/>
          <path class="cls-3" d="M195.09,85.82q-.07.07-.14.14c-.07.14-.22.36-.43.58-.14.36-.36.58-.58.86v-1.01c1.15-1.37,2.23-3.38,2.23-4.03,0-.5-.22-.94-.86-.94-.43,0-.94.22-1.37.58v-.79c.5-.22,1.08-.36,1.73-.36.29,0,.5,0,.65.07l.22.07h.21q.07,0,.14-.07s.07-.07.07-.14l.07-.07.07-.07c.07-.07.14-.14.22-.14s.22.07.43.14c.14.07.36.22.36.43,0,.14-.22.58-.36,1.08-.22.58-.5,1.3-.79,2.02-.58,1.44-1.08,2.88-1.08,3.24,0,.14,0,.22.07.22h.07c.07,0,.22-.07.36-.22.14-.14.29-.29.5-.5.14-.14.29-.36.43-.5.07-.07.14-.14.22-.22,0,0,.07-.07.14-.07.22,0,.29.14.29.29s-1.58,2.52-2.88,2.52c-.5,0-.72-.29-.72-.79,0-.43.22-1.01.36-1.44.14-.22.22-.43.29-.58l.07-.14v-.14ZM193.94,87.41c-.94,1.15-1.73,1.51-2.45,1.51s-1.3-.58-1.3-1.66c0-1.3,1.3-4.82,3.74-6.05v.79c-1.22,1.08-2.23,3.24-2.23,4.9,0,.58.22.72.5.72.5,0,1.15-.5,1.73-1.22v1.01Z"/>
          <path class="cls-3" d="M202.07,83.52c.07,0,.14-.07.22-.22.14-.14.29-.36.5-.65.22-.29.5-.58.79-.86.58-.58,1.3-1.08,2.09-1.08s1.37.58,1.37,1.44c0,.72-.5,1.87-.94,2.95-.29.5-.5,1.01-.65,1.37-.22.43-.29.72-.29.79,0,.14.07.22.07.22.29,0,1.22-.72,1.58-1.15l.43.29c-1.15,1.3-2.74,2.3-3.53,2.3-.43,0-.58-.22-.58-.58,0-.07.14-.5.36-.94.22-.5.5-1.08.79-1.8.65-1.3,1.22-2.66,1.22-3.17s-.29-.58-.58-.58c-1.15,0-3.38,2.81-4.32,5.54l-.29.86c-.07.14-.14.29-.22.43l-.14.07h-.43c-.22,0-.36,0-.43-.07-.07,0-.14,0-.14-.14s.14-.58.29-1.08c.22-.58.5-1.22.65-1.94.58-1.37,1.08-2.74,1.08-3.31,0-.07-.07-.07-.07-.14-.22,0-.58.36-1.01.72l-.5.43c-.07.07-.14.14-.14.22q-.14.07-.22.07c-.14,0-.22-.14-.22-.29,0-.36,2.38-2.52,3.24-2.52.43,0,.65.22.65.58s-.14.86-.29,1.37l-.29.65-.07.22h0Z"/>
          <path class="cls-3" d="M213.16,85.82q-.07.07-.14.14c-.14.14-.29.36-.43.58-.22.36-.36.58-.58.86v-1.01c1.15-1.37,2.23-3.38,2.23-4.03,0-.5-.29-.94-.86-.94-.5,0-.94.22-1.37.58v-.79c.5-.22,1.08-.36,1.73-.36.22,0,.43,0,.65.07l.22.07h.22s.07,0,.07-.07c.07,0,.07-.07.14-.14l.07-.07.07-.07c0-.07.07-.14.22-.14.07,0,.22.07.36.14.22.07.36.22.36.43,0,.14-.14.58-.36,1.08-.14.58-.43,1.3-.72,2.02-.58,1.44-1.08,2.88-1.08,3.24v.22h.14c.07,0,.22-.07.36-.22.14-.14.29-.29.43-.5.22-.14.36-.36.5-.5.07-.07.14-.14.14-.22.07,0,.14-.07.22-.07.22,0,.29.14.29.29s-1.58,2.52-2.88,2.52c-.5,0-.72-.29-.72-.79,0-.43.22-1.01.36-1.44.07-.22.22-.43.29-.58l.07-.14v-.14ZM212.01,87.41c-.94,1.15-1.73,1.51-2.45,1.51s-1.3-.58-1.3-1.66c0-1.3,1.22-4.82,3.74-6.05v.79c-1.22,1.08-2.23,3.24-2.23,4.9,0,.58.22.72.5.72.5,0,1.15-.5,1.73-1.22v1.01Z"/>
          <path class="cls-3" d="M220.58,83.52c.07,0,.14-.07.22-.22.14-.14.29-.36.5-.65.22-.29.5-.58.79-.86.58-.58,1.3-1.08,2.09-1.08s1.37.58,1.37,1.44c0,.72-.5,1.87-.94,2.95-.29.5-.5,1.01-.65,1.37-.22.43-.29.72-.29.79,0,.14.07.22.07.22.29,0,1.22-.72,1.58-1.15l.43.29c-1.15,1.3-2.74,2.3-3.53,2.3-.43,0-.58-.22-.58-.58,0-.07.14-.5.36-.94.22-.5.5-1.08.79-1.8.65-1.3,1.22-2.66,1.22-3.17s-.29-.58-.58-.58c-1.15,0-3.38,2.81-4.32,5.54l-.29.86c-.07.14-.14.29-.22.43l-.14.07h-.5c-.22,0-.36,0-.43-.07-.07,0-.14,0-.14-.14s.14-.58.29-1.08c.21-.58.5-1.22.72-1.94.58-1.37,1.08-2.74,1.08-3.31,0-.07-.07-.07-.07-.14-.22,0-.58.36-1.01.72l-.58.43c-.07.07-.14.14-.14.22q-.14.07-.22.07c-.14,0-.22-.14-.22-.29,0-.36,2.45-2.52,3.31-2.52.43,0,.65.22.65.58s-.14.86-.29,1.37l-.29.65-.07.22h0Z"/>
          <path class="cls-3" d="M229.22,86.62h-.07v-.86c.22.22.5.36.94.36,1.44,0,2.23-2.16,2.23-3.17,0-.86-.36-1.58-1.22-1.58s-1.51.65-1.94,1.51v-1.73c.5-.29,1.15-.43,1.73-.43.72,0,1.22.22,1.58.43.07.07.14.14.22.14l.14.14.07.14.22-.07.43-.22c.29-.07.65-.22.94-.22.5,0,.79.22.79.72,0,.36-.36.58-.72.58-.14,0-.43-.07-.65-.14l-.22-.07h-.22c-.07.36.07.43.07,1.37,0,1.22-1.01,3.24-3.31,3.24-.43,0-.79-.07-1.01-.14h0ZM229.15,87.84c.43.22.94.43,1.37.72,1.22.58,2.59,1.37,2.59,2.23,0,1.15-1.22,2.45-3.96,2.66v-.72c1.66,0,2.59-.65,2.59-1.22s-.5-.94-1.15-1.22c-.29-.14-.65-.29-.94-.43-.22-.07-.36-.14-.5-.22v-1.8ZM229.15,86.62c-.07-.07-.22-.14-.29-.14l-.22-.14c-.5.29-.58.43-.58.58,0,.22.29.43.79.72.07.07.22.14.29.22v1.8c-.14-.07-.29-.14-.43-.29-1.44.65-2.09,1.08-2.09,1.87,0,.86,1.01,1.51,2.45,1.51h.07v.72h-.72c-2.09,0-3.38-1.01-3.38-2.09,0-.86.79-1.66,3.02-2.45l-.22-.14c-.22-.07-.36-.22-.5-.36-.36-.29-.65-.65-.65-1.15,0-.36.21-.65.5-.86.29-.22.65-.36.94-.58-.5-.58-.65-1.3-.65-1.8,0-1.15.72-2.23,1.66-2.88v1.73c-.22.5-.36,1.15-.36,1.73,0,.43.14.86.36,1.15v.86Z"/>
          <path class="cls-3" d="M239.44,85.82q-.07.07-.14.14c-.14.14-.29.36-.43.58-.22.36-.36.58-.58.79v-.94c1.15-1.37,2.23-3.38,2.23-4.03,0-.5-.29-.94-.86-.94-.5,0-.94.22-1.37.58v-.79c.5-.22,1.08-.36,1.66-.36.29,0,.5,0,.72.07l.22.07h.22s.07,0,.07-.07c.07,0,.07-.07.14-.14l.07-.07.07-.07c0-.07.07-.14.22-.14.07,0,.22.07.36.14.22.07.36.22.36.43,0,.14-.14.58-.36,1.08-.14.58-.43,1.3-.72,2.02-.58,1.44-1.08,2.88-1.08,3.24v.22h.14c.07,0,.14-.07.36-.22.14-.14.29-.29.43-.5.22-.14.36-.36.5-.5.07-.07.07-.14.14-.22.07,0,.14-.07.22-.07.14,0,.29.14.29.29s-1.58,2.52-2.95,2.52c-.43,0-.65-.29-.65-.79,0-.43.22-1.01.36-1.44.07-.22.22-.43.29-.58l.07-.14v-.14ZM238.29,87.34c-.94,1.22-1.73,1.58-2.45,1.58s-1.3-.58-1.3-1.66c0-1.3,1.22-4.82,3.74-6.05v.79c-1.22,1.08-2.23,3.24-2.23,4.9,0,.58.22.72.5.72.5,0,1.08-.5,1.73-1.22v.94Z"/>
        </g>
        <g>
          <path class="cls-3" d="M269.54,80.28c-.14.36-4.03,5.98-4.03,5.98-.43.65-1.44,2.23-1.66,2.59l-.94.07c.07-3.89.65-9.86.65-11.09,0-1.3-.14-1.37-1.51-1.37v-.65c.58.07,1.66.07,2.74.07.72,0,1.44,0,2.16-.07v.58c-1.37.14-1.58.43-1.66,1.58l-.43,7.49c-.07.22-.07.36-.07.43l.5-.65c.29-.43.72-1.08,1.22-1.8,1.01-1.44,2.23-3.17,3.1-4.32l.14-1.87c0-.5-.36-.79-1.15-.79v-.65c.29.07,1.22.07,2.23.07.94,0,1.44,0,2.02-.07v.58c-1.15.07-1.44.29-1.51,1.94l-.36,5.18c-.07,1.08-.22,2.52-.22,2.74.07.14,5.76-7.99,5.76-9.22,0-.43-.29-.65-.94-.58v-.65c.36.07,1.08.07,1.73.07.79,0,1.44,0,1.8-.07v.58c-.86.07-1.22.36-1.87,1.51-2.81,4.82-6.26,9.43-7.34,10.94l-.94.07.58-8.64Z"/>
          <path class="cls-3" d="M279.47,85.82q-.07.07-.14.14c-.14.14-.29.36-.43.58-.22.36-.36.58-.58.86v-1.01c1.15-1.37,2.23-3.38,2.23-4.03,0-.5-.29-.94-.86-.94-.5,0-.94.22-1.37.58v-.79c.5-.22,1.08-.36,1.73-.36.22,0,.43,0,.65.07l.21.07h.22s.07,0,.07-.07c.07,0,.07-.07.14-.14l.07-.07.07-.07c0-.07.07-.14.22-.14.07,0,.22.07.36.14.22.07.36.22.36.43,0,.14-.14.58-.36,1.08-.14.58-.43,1.3-.72,2.02-.58,1.44-1.08,2.88-1.08,3.24v.22h.14c.07,0,.22-.07.36-.22.14-.14.29-.29.43-.5.22-.14.36-.36.5-.5.07-.07.14-.14.14-.22.07,0,.14-.07.22-.07.22,0,.29.14.29.29s-1.58,2.52-2.88,2.52c-.5,0-.72-.29-.72-.79,0-.43.22-1.01.36-1.44.07-.22.21-.43.29-.58l.07-.14v-.14ZM278.32,87.41c-.94,1.15-1.73,1.51-2.45,1.51s-1.3-.58-1.3-1.66c0-1.3,1.22-4.82,3.74-6.05v.79c-1.22,1.08-2.23,3.24-2.23,4.9,0,.58.22.72.5.72.5,0,1.15-.5,1.73-1.22v1.01Z"/>
          <path class="cls-3" d="M283.58,83.02l.14-.14c.5-.58,1.8-2.02,2.74-2.02.43,0,.65.29.65.58,0,.79-.5,2.23-1.01,3.46-.29.65-.58,1.3-.72,1.8-.22.43-.36.79-.36.94s0,.14.14.14c.22,0,.5-.22.86-.5.29-.29.65-.58.79-.79l.07-.07.36.36-.07.07c-.14.14-.36.36-.58.58-.22.29-.43.5-.72.72-.5.43-1.08.79-1.8.79-.5,0-.65-.22-.65-.5,0-.65.5-1.94,1.01-3.17.29-.65.5-1.22.72-1.73.22-.5.36-.94.36-1.08s-.07-.22-.22-.22-.43.22-.65.43c-.29.22-.58.5-.65.65l-.07.07-.36-.36h0ZM287.39,75.82c.5,0,.86.43.86.94s-.36.86-.86.86-.94-.36-.94-.86.43-.94.94-.94Z"/>
          <path class="cls-3" d="M292.94,81.22c.58-.43,1.3-.79,2.02-.79.79,0,1.51.5,1.51,1.44,0,1.58-2.09,2.52-3.1,2.95.07.58.36,2.59.86,4.39.5,2.02,1.22,3.67,2.02,3.67.29,0,.36-.14.36-.22-.07-.07-.07-.14-.07-.14l-.07-.14h.22c0-.07.07-.07.07-.07.22,0,.36.14.36.43,0,.36-.36.72-.94.72-1.15,0-2.38-1.58-3.24-4.03v-5.26c1.15-.58,2.16-1.37,2.16-2.16,0-.29-.22-.58-.65-.58-.36,0-.94.29-1.51.65v-.86h0ZM292.94,75.6h.72c.14,0,.29,0,.29.22s-.22.72-.36,1.08l-.65,1.87v-3.17ZM291.64,82.15h.07c.07-.14.14-.22.29-.29.22-.14.43-.36.72-.58.07,0,.14-.07.22-.07v.86c-.72.43-1.37.86-1.58,1.15l-.65,1.8c.65-.22,1.44-.5,2.23-.86v5.26c-.43-1.22-.79-2.59-.94-4.1l-.79.29-.72.22-.58,1.66c-.21.58-.29.94-.36,1.08-.07.14-.22.22-.36.22h-.72c-.36,0-.43-.14-.43-.29,0-.22.58-2.02,2.09-6.26.79-2.16,1.3-3.53,1.58-4.39.29-.86.36-1.22.36-1.37,0-.07,0-.14-.22-.22-.22,0-.5-.07-1.01-.07h-.07v-.58h2.16v3.17l-1.01,2.59-.14.5-.07.22q-.07.07,0,.07h-.07Z"/>
          <path class="cls-3" d="M301.51,85.82c-.07.07-.14.07-.22.14-.07.14-.22.36-.36.58-.22.36-.43.58-.58.86v-1.01c1.15-1.37,2.23-3.38,2.23-4.03,0-.5-.29-.94-.94-.94-.43,0-.86.22-1.3.58v-.79c.5-.22,1.08-.36,1.66-.36.29,0,.5,0,.65.07l.29.07h.14q.07,0,.14-.07c.07,0,.07-.07.14-.14v-.07l.07-.07c.07-.07.14-.14.22-.14s.29.07.43.14c.14.07.36.22.36.43,0,.14-.14.58-.36,1.08-.22.58-.5,1.3-.72,2.02-.58,1.44-1.15,2.88-1.15,3.24,0,.14.07.22.07.22h.07c.07,0,.22-.07.36-.22.14-.14.36-.29.5-.5.14-.14.36-.36.43-.5.07-.07.14-.14.22-.22.07,0,.14-.07.22-.07.14,0,.22.14.22.29s-1.58,2.52-2.88,2.52c-.43,0-.65-.29-.65-.79,0-.43.14-1.01.36-1.44.07-.22.14-.43.22-.58l.07-.14.07-.14ZM300.35,87.41c-1.01,1.15-1.8,1.51-2.45,1.51-.72,0-1.3-.58-1.3-1.66,0-1.3,1.22-4.82,3.74-6.05v.79c-1.3,1.08-2.23,3.24-2.23,4.9,0,.58.14.72.43.72.5,0,1.15-.5,1.8-1.22v1.01Z"/>
          <path class="cls-3" d="M309.79,80.86h.72c.29,0,.36.22.36.58,0,.29-.22.58-.36.58h-.94c-.22,0-.29.07-.36.29l-1.58,4.18-.22.43c0,.14-.07.29-.07.36s.07.22.29.22.65-.36,1.22-.79l.65-.5.22-.14.07-.07q.07-.07.14-.07c.14,0,.22.14.22.29,0,.22-.36.58-1.37,1.44-.79.72-1.87,1.3-2.52,1.3-.5,0-.72-.36-.72-.65s.29-1.01.43-1.44l1.66-4.39.07-.22c.07-.07.07-.14.07-.14,0,0-.07-.07-.22-.07h-.86c-.14,0-.22-.07-.22-.22v-.14s.07,0,.07-.07l.22-.72h1.3c.14,0,.22,0,.29-.14l.58-1.37c0-.07.07-.07.14-.14.14,0,.29,0,.5-.07h.36c.07-.07.14-.07.22-.07s.22.14.22.22v.07l-.07.14-.07.29-.43.94v.14h0Z"/>
          <path class="cls-3" d="M319.15,83.81c0,2.02-1.51,4.39-3.89,4.97v-.94c1.15-.86,2.38-2.88,2.38-4.75,0-1.22-.58-1.8-1.3-1.8-.29,0-.72.14-1.08.43v-.94c.36-.07.72-.07,1.08-.07,1.44,0,2.81,1.01,2.81,3.1ZM315.26,88.78c-.36.07-.72.14-1.08.14-1.37,0-2.81-1.08-2.81-3.1s1.51-4.46,3.89-5.04v.94c-1.15.94-2.38,2.88-2.38,4.75,0,1.3.58,1.87,1.3,1.87.36,0,.72-.22,1.08-.5v.94Z"/>
        </g>
        <g>
          <path class="cls-3" d="M100.91,78.55l.07-.14c.14-.43.43-1.15.72-1.8.14-.29.29-.58.43-.79.14-.22.29-.36.5-.36.14,0,.29,0,.36.07.14.07.22.14.36.22.21.22.65.36,1.51.36h5.47c1.22,0,1.73-.14,2.23-.43.14-.14.29-.22.43-.22.22,0,.29.14.29.36s-.22,1.51-.5,3.02c0,.36-.14.36-.43.36s-.36-.07-.36-.43c0-1.51-.65-1.94-2.3-1.94-.72,0-1.01.14-1.3,1.3l-1.8,6.98c-.29,1.01-.58,2.02-.58,2.52,0,.36.5.58,1.73.58v.58h-5.69v-.58c1.58-.14,1.87-.22,2.23-1.51l2.16-7.99c.07-.43.22-1.08.22-1.44,0-.29,0-.43-1.44-.43s-2.16.22-3.53,1.8l-.79-.07Z"/>
          <path class="cls-3" d="M114.31,87.26q0-.07.07-.07c.22-.14.43-.29.58-.43l.14-.07c.07-.07.14-.07.14-.07.22,0,.29.07.29.22s-.5.72-1.22,1.22v-.79h0ZM114.31,80.93c.36-.14.79-.22,1.15-.22,1.01,0,1.66.65,1.66,1.3,0,1.3-1.58,1.87-2.81,2.09v-.79c.94-.22,1.51-.72,1.51-1.37,0-.36-.29-.65-.65-.65-.29,0-.58.14-.86.36v-.72ZM112.87,87.77c.5,0,1.01-.29,1.44-.5v.79c-.65.43-1.44.86-2.23.86-1.3,0-2.16-.86-2.16-2.23,0-2.45,2.3-5.04,4.39-5.76v.72c-.65.58-1.22,1.44-1.51,1.87.58,0,1.08-.07,1.51-.22v.79c-.36.07-.72.07-1.01.07h-.86c-.36.58-.79,1.3-.79,2.3,0,.79.43,1.3,1.22,1.3Z"/>
        </g>
      </g>
      <rect class="cls-2" x="194.08" y="78.7" width="4.39" height=".72"/>
      <path class="cls-3" d="M172.77,62.64v-.5c0-.29-.22-.43-.72-.43-.79-.07-1.66-.22-2.16-.5-.58-.29-.86-.65-1.37-1.73l-.58-1.22-10.44-24.26c-.36-.86-.43-.94-1.01-.94h-.5c-.5,0-.58,0-.72.14h0v6.12l4.46,11.09h-4.46v2.23h5.33l2.23,5.62.36,1.01c.07.22.22.43.22.65.07.36.14.58.14.72,0,.5-.65.79-1.87.94-.43.07-.79.07-.94.07s-.29.07-.36.14c-.14.07-.14.22-.14.43v.43c0,.36.07.43.43.43h11.38c.5,0,.72-.07.72-.43ZM155.27,33.19c-.07.22-.22.43-.43.79l-10.15,24.12c-.72,1.73-.94,2.23-1.44,2.74-.22.22-.43.36-.65.43-.43.22-.94.36-1.87.43-.36.07-.5.22-.5.72,0,.58.14.65.58.65h.86c1.8,0,3.1-.07,3.82-.07.65,0,1.94.07,3.96.07h.86c.58,0,.72-.07.72-.65,0-.65-.14-.79-.94-.79-1.87,0-2.81-.43-2.81-1.37,0-.36.29-1.37.58-2.09l2.09-5.54h5.33v-2.23h-4.46l4.39-11.38.07.29v-6.12Z"/>
      <path class="cls-3" d="M226.12,62.42c0-.5-.07-.65-.43-.72l-.43-.07c-.79-.07-1.66-.36-2.16-.58-.86-.5-1.44-1.08-3.24-3.1l-10.01-11.16,7.27-7.2c2.16-2.09,3.53-3.24,4.54-3.74.58-.29,1.3-.5,2.52-.65.5-.07.65-.22.65-.72v-.29c0-.29-.14-.43-.5-.43h-1.73c-1.22.07-2.16.07-2.88.07l-3.74-.07h-2.09c-.43,0-.5.14-.5.65,0,.58.07.72.65.79,1.44,0,1.94.29,1.94.86,0,.65-.58,1.37-2.66,3.6l-6.19,6.41v4.25l6.84,7.99c1.08,1.22,1.44,1.87,1.44,2.3,0,.58-.65.94-2.02,1.01-.65.07-.79.22-.79.72,0,.65.07.72.65.72h2.45c1.66-.07,2.95-.07,3.96-.07.94,0,2.16,0,3.74.07h1.94c.65,0,.79-.07.79-.65h0ZM207.12,63.07v-1.44c.29.07.65.07.94.07.86,0,1.01.07,1.01.65v.14c0,.5-.07.58-.58.58h-1.37ZM207.12,35.28v-1.51h1.08c.43-.07.58.14.58.5v.14c0,.65-.14.72-1.01.79-.07,0-.29,0-.65.07ZM207.12,46.08l-1.87,1.94,1.87,2.3v-4.25h0ZM207.12,33.77v1.51c-.07,0-.14,0-.29.07h-.07c-1.8.22-2.02.65-2.02,3.89v18.36c0,1.51.07,2.59.29,3.02.14.5,1.01.86,2.09,1.01v1.44h-.86c-1.22-.07-2.16-.07-2.88-.07h-1.94c-.43,0-1.37,0-2.74.07h-1.94c-.36,0-.5-.07-.5-.43v-.22c0-.65.07-.72.94-.72.29,0,.65-.07,1.01-.14h0c.58-.14,1.01-.29,1.3-.43.5-.29.65-1.22.65-3.53v-18.36c0-3.24-.22-3.67-1.94-3.89h0c-.58-.14-.94-.14-1.01-.14-.79-.07-.94-.14-.94-.79v-.07c0-.43.07-.58.58-.58h1.87c1.3,0,2.23.14,2.81.14h1.94c.5,0,1.37-.14,2.81-.14h.86Z"/>
      <path class="cls-3" d="M261.69,62.64v-.5c0-.29-.22-.43-.72-.43-.79-.07-1.66-.22-2.16-.5-.58-.29-.86-.65-1.37-1.73l-.58-1.22-10.44-24.26c-.36-.86-.43-.94-1.01-.94h-.5c-.5,0-.58,0-.72.14h0v6.12l4.46,11.09h-4.46v2.23h5.33l2.23,5.62.36,1.01c.07.22.14.43.21.65.07.36.14.58.14.72,0,.5-.65.79-1.87.94-.43.07-.79.07-.94.07s-.29.07-.36.14c-.14.07-.14.22-.14.43v.43c0,.36.07.43.43.43h11.38c.5,0,.72-.07.72-.43ZM244.19,33.19c-.07.22-.22.43-.43.79l-10.15,24.12c-.72,1.73-.94,2.23-1.44,2.74-.22.22-.43.36-.65.43-.43.22-.94.36-1.87.43-.36.07-.5.22-.5.72,0,.58.14.65.58.65h.86c1.8,0,3.1-.07,3.82-.07.65,0,1.94.07,3.96.07h.86c.58,0,.72-.07.72-.65,0-.65-.14-.79-.94-.79-1.87,0-2.81-.43-2.81-1.37,0-.36.29-1.37.58-2.09l2.09-5.54h5.33v-2.23h-4.46l4.39-11.38.07.29v-6.12Z"/>
      <path class="cls-3" d="M320.15,47.16c0-8.28-6.05-14.26-14.4-14.26h-.86v2.3c5.98.22,10.51,6.12,10.51,13.97,0,7.27-4.25,12.31-10.3,12.31h-.22v2.45c8.78-.29,14.83-6.7,15.26-16.13v-.65ZM304.89,32.9c-8.86.43-15.26,7.2-15.26,16.34,0,8.64,6.05,14.69,14.69,14.69h.58v-2.45c-6.05-.14-10.58-6.05-10.58-13.9,0-7.42,4.1-12.38,10.3-12.38h.29v-2.3Z"/>
      <path class="cls-3" d="M189.91,62.5v-.43c0-.22-.14-.29-.58-.36l-1.01-.07c-2.09-.29-2.52-.72-2.59-2.59v-19.8c0-.07,0-.5.07-1.44,0-.36,0-.65.07-.86,0-.58.22-1.01.5-1.15.5-.36,1.51-.58,2.81-.65.5,0,.5-.14.5-.72v-.14c0-.36-.07-.58-.5-.5h-.79l-1.87.07h-2.95l-3.67-.07h-2.3c-.43,0-.5.07-.5.36v.29c0,.65.07.72.43.72,1.37.07,2.45.29,2.81.58.58.43.72,1.08.72,3.53v18.36c0,2.23-.14,3.17-.72,3.53-.5.36-1.01.5-2.74.58-.43,0-.5.14-.5.72v.22c0,.36.07.43.5.43h1.94c1.44-.07,2.37-.07,2.81-.07h2.02c.65,0,1.58,0,2.88.07h2.16c.43,0,.5-.07.5-.58Z"/>
      <path class="cls-3" d="M145.99,34.42c0-.5-.14-.65-.58-.65h-1.73l-2.81.07h-2.66c-.86,0-1.51-.07-1.73-.07h-.65c-.43,0-.58.22-.58.72,0,.29.07.5.22.65.14.07.22,0,1.08.07,1.73.14,2.3.58,2.3,1.51,0,.5-.07,1.01-.36,1.87l-.36,1.15-5.54,17.14-5.62-16.99-.5-1.37c-.36-.94-.43-1.44-.43-1.87,0-.94.58-1.3,2.52-1.37l.86-.07c.43,0,.58-.14.58-.65,0-.65-.14-.79-1.01-.79-.22,0-.86,0-2.23.07h-6.34c-1.3,0-1.66,0-2.38-.07h-.29c-.43,0-.58.14-.58.65,0,.72.07.79.65.79,1.66.22,2.16.36,2.59.94.43.5.79,1.22,1.15,2.38l-6.12,18.29-6.05-17.5-.36-.86c-.29-1.01-.43-1.3-.43-1.73,0-.94.58-1.3,2.81-1.44l.58-.07c.5,0,.58-.07.58-.65,0-.65-.14-.86-.65-.79h-.72l-1.8.07h-6.84l-1.8-.07h-.58c-.58,0-.65.14-.65.79,0,.36,0,.5.14.58.14.07.22.07.72.14,1.58.14,2.16.43,2.59.94.22.22.36.58.79,1.58.36.79.65,1.44.79,1.8l8.42,22.82c.43,1.22.58,1.37.94,1.37h.94c.36,0,.5-.14.72-.79l7.13-21.1,7.34,20.66c.36,1.01.58,1.22,1.08,1.22h.79c.36,0,.5-.07.72-.72l.22-.58,8.35-22.75.79-2.09c.36-1.01.43-1.22.86-1.58.43-.43.94-.65,2.02-.86.86-.07.94-.07,1.01-.22,0-.14.07-.36.07-.58Z"/>
      <path class="cls-3" d="M287.47,34.27c.07-.36-.14-.5-.58-.5h-2.38c-.29,0-1.37.07-3.17.07h-7.06l-6.12-.07h-5.47c-.5,0-.65,0-.72.22-.07.14-.14.36-.22,1.37l-.36,3.89c0,.29-.07.58-.07.86v.07c0,.22.36.43,1.08.43.22,0,.29-.07.29-.36.36-1.73,1.29-3.1,2.52-3.67,1.08-.5,2.3-.65,6.34-.65h.58v21.67c0,2.45-.07,3.1-.72,3.46-.5.29-1.58.5-3.02.65-.86,0-.94.14-.94.58v.22c0,.5.07.58.43.58h2.74c1.58-.07,2.95-.07,3.96-.07l4.54.07h2.16c.65,0,.72,0,.72-.58v-.43c0-.29-.14-.36-1.22-.43-1.8-.14-2.45-.22-2.95-.43-.79-.43-1.01-1.01-1.01-3.6v-21.67h1.87c1.37,0,2.88,0,3.74.07.65.14,1.15.22,1.66.5.86.5,1.44,1.51,1.66,3.31.07.65.14.72.79.72.58,0,.65-.07.72-.5l.07-.72v-1.01l.14-2.95v-1.08Z"/>
    </g>
  </g>
</svg>